<?xml version="1.0" encoding="UTF-8"?>
<svg id="IA" xmlns="http://www.w3.org/2000/svg" viewBox="0 0 250 150">
  <defs>
    <style>
		.cls-1 {
		fill: #ffffff;
		}
	</style>
  </defs>
  <path class="cls-1" d="M93.21,92.4c0,3.02,0,6.04,0,9.06.01,4.29,1.25,5.83,5.5,6.73,4.71,1,9.41,2.05,14.15,2.88,4.49.79,8.92,2.73,13.49,2.01,8.62-1.36,17.17-3.15,25.73-4.88,2.37-.48,4.05-2.14,4.11-4.59.16-7.18.1-14.37.11-21.55,0-.79-.21-1.65-1.27-1.16-1.83.85-3.73,1.6-3.6,4.3.18,3.75.12,7.51.07,11.26-.04,2.9-1.51,4.48-4.02,4.56-2.54.08-4.1-1.39-4.31-4.28-.15-2.11-.08-4.24-.11-6.36-.04-2.46-.2-2.56-2.24-1.4-2.41,1.38-4.87,2.67-7.2,4.18-5.99,3.9-11.77,3.79-17.86-.04-6.69-4.22-13.69-7.95-20.52-11.95-1.55-.91-2.11-.75-2.05,1.16.09,3.34.03,6.69.02,10.04ZM85.2,91.02c0-4.25-.1-8.5.04-12.74.07-2.09-.68-3.36-2.5-4.27-2.92-1.47-5.28-3.55-6.63-6.61-2.72-6.19-.6-12.69,5.45-16.23,9.65-5.65,19.36-11.22,29.04-16.82,2.33-1.35,4.71-2.63,6.99-4.05,4.86-3.01,9.65-2.93,14.56-.06,9.72,5.7,19.49,11.32,29.24,16.97,2.61,1.52,5.3,2.93,7.81,4.6,7.99,5.31,7.82,16.31-.5,21.07-3.06,1.75-4.11,3.69-3.99,7.14.27,7.67.09,15.35.08,23.03,0,6.77-3.44,11.75-9.98,13.37-9.35,2.31-18.83,4.09-28.37,5.44-3.01.43-5.97-.72-8.93-1.29-6.49-1.25-12.97-2.6-19.45-3.88-3.34-.66-6.45-1.78-8.95-4.21-2.52-2.45-3.9-5.4-3.9-8.95,0-4.17,0-8.33,0-12.5ZM124.92,87.71c1.1.05,2.08-.29,3.02-.85,4.08-2.4,8.17-4.8,12.28-7.15,1.41-.8,2.58-1.57,2.45-3.52-.13-2.06-1.34-3.02-3.03-3.72-2.8-1.15-5.61-2.26-8.37-3.49-1.51-.67-2.88-.72-4.48-.23-3.58,1.1-6.99-.6-8.43-3.99-1.34-3.16-.22-6.92,2.57-8.6,3.18-1.92,7.54-1.45,9.41,1.61,1.58,2.58,3.84,3.57,6.36,4.54,2.29.88,4.55,1.82,6.8,2.79,3.12,1.35,5.53,3.48,6.79,6.7.49,1.26,1.06,1.4,2.19.74,3.74-2.19,7.56-4.23,11.26-6.48,3.77-2.29,3.77-5.88-.04-8.11-11.92-6.96-23.9-13.83-35.85-20.73-2.11-1.22-4.09-1.11-6.22.14-11.63,6.81-23.3,13.55-34.98,20.28-4.45,2.57-4.59,6.16-.17,8.73,11.72,6.82,23.47,13.58,35.21,20.37,1.01.58,2.05,1.02,3.24.97Z"/>
</svg>