<?xml version="1.0" encoding="UTF-8"?>
<svg id="IA" xmlns="http://www.w3.org/2000/svg" viewBox="0 0 250 150">
  <defs>
    <style>
		.cls-1 {
		fill: #ffffff;
		}
	</style>
  </defs>
  <path class="cls-1" d="M104.13,68.98c1.05,0,2.11-.06,3.16.01,1.71.11,2.84,1.36,2.86,3.05.02,1.66-1.13,2.9-2.91,2.96-2.04.07-4.09.09-6.13-.01-1.9-.09-3.02-1.37-2.96-3.13.06-1.67,1.2-2.79,3.01-2.88.99-.05,1.98,0,2.97,0,0,0,0,0,0,0Z"/>
  <path class="cls-1" d="M104.05,89.92c-1.05,0-2.12.09-3.16-.02-1.77-.18-2.82-1.45-2.75-3.14.07-1.61,1.16-2.77,2.85-2.84,2.1-.08,4.22-.08,6.32,0,1.7.07,2.83,1.38,2.83,3.07,0,1.58-1.09,2.81-2.76,2.93-1.11.08-2.23.02-3.35.02,0,0,0-.01,0-.02Z"/>
  <path class="cls-1" d="M104.1,98.82c1.05,0,2.11-.05,3.16.01,1.72.11,2.85,1.33,2.89,3.02.03,1.66-1.11,2.93-2.88,2.99-2.04.08-4.09.09-6.13,0-1.91-.09-3.04-1.35-2.99-3.1.05-1.74,1.23-2.84,3.17-2.92.93-.04,1.86,0,2.79,0,0,0,0,0,0,0Z"/>
  <g>
    <path class="cls-1" d="M124.97,116.84c-10.56,0-21.13-.13-31.69.05-5.92.1-10.28-4.2-10.22-10.22.2-19.26.07-38.52.08-57.78,0-6.26,3.56-9.81,9.81-9.83.5,0,.99,0,1.49,0q3.26,0,3.64-3.18c.2-1.71,1.46-2.81,3.16-2.77,1.61.04,2.79,1.12,2.99,2.76q.4,3.19,3.63,3.19c11.81,0,23.61,0,35.42,0q2.47,0,2.53-2.4c.06-2.3,1.19-3.58,3.15-3.55,1.92.03,3.11,1.31,3.01,3.65-.07,1.77.47,2.52,2.3,2.32,1.17-.12,2.36-.03,3.54-.02,5.35.05,9.11,3.81,9.11,9.21.02,19.7.02,39.39,0,59.09,0,5.62-3.84,9.45-9.52,9.47-10.81.03-21.62,0-32.43.01ZM125.09,63.17c-11.19,0-22.38.03-33.57-.03-1.72-.01-2.22.52-2.22,2.23.06,13.61.03,27.23.04,40.84,0,3.34.84,4.17,4.21,4.17,21.01,0,42.02,0,63.04,0,3.29,0,4.14-.86,4.14-4.24,0-13.55-.04-27.1.05-40.66.01-1.98-.68-2.36-2.48-2.35-11.07.07-22.13.04-33.2.04ZM125.04,56.97c11.19,0,22.38-.01,33.57.02,1.39,0,2.28-.18,2.15-1.9-.12-1.67-.02-3.35-.03-5.03,0-3.94-.87-4.79-4.84-4.79-3.56,0-3.57,0-3.89,3.48-.14,1.48-.93,2.44-2.31,2.82-1.42.39-2.55-.17-3.39-1.35-.55-.77-.47-1.65-.48-2.52q-.03-2.43-2.5-2.43c-11.69,0-23.37,0-35.06,0q-3.61,0-4.01,3.55c-.19,1.68-1.5,2.88-3.12,2.86-1.54-.02-2.77-1.19-3.05-2.75-.21-1.17.65-2.79-.61-3.43-1-.51-2.43-.19-3.66-.23-.25,0-.5,0-.75,0-2.52.09-3.64,1.17-3.71,3.67-.05,1.93.1,3.86-.05,5.78-.14,1.85.59,2.3,2.35,2.28,11.13-.07,22.25-.03,33.38-.03Z"/>
    <path class="cls-1" d="M125.11,75c-1.12,0-2.24.09-3.34-.02-1.77-.18-2.82-1.46-2.74-3.15.08-1.61,1.16-2.77,2.86-2.83,2.1-.08,4.22-.08,6.32,0,1.69.07,2.82,1.39,2.82,3.08,0,1.58-1.1,2.8-2.76,2.92-1.05.08-2.11.01-3.16.01,0,0,0-.01,0-.02Z"/>
    <path class="cls-1" d="M146.05,75.02c-1.05,0-2.11.06-3.16-.01-1.9-.14-3.03-1.37-2.97-3.13.06-1.67,1.19-2.83,3-2.89,2.04-.06,4.09-.07,6.13.01,1.71.07,2.84,1.34,2.87,3.03.02,1.66-1.12,2.87-2.9,2.98-.99.06-1.98.01-2.97.01,0,0,0,0,0,0Z"/>
    <path class="cls-1" d="M124.96,89.94c-.99,0-1.99.06-2.97-.01-1.9-.15-3.02-1.38-2.96-3.14.06-1.67,1.2-2.82,3.01-2.88,1.98-.06,3.97-.06,5.95,0,1.84.06,3.02,1.3,3.04,3.06.02,1.72-1.18,2.9-3.1,2.98-.99.04-1.98,0-2.97,0,0,0,0-.01,0-.02Z"/>
    <path class="cls-1" d="M146.01,89.92c-1.12,0-2.24.09-3.34-.02-1.77-.18-2.82-1.45-2.75-3.14.07-1.61,1.16-2.78,2.85-2.84,2.1-.08,4.22-.08,6.32,0,1.7.07,2.83,1.38,2.84,3.07,0,1.58-1.09,2.8-2.75,2.93-1.05.08-2.11.02-3.16.02,0,0,0-.01,0-.02Z"/>
    <path class="cls-1" d="M125.12,104.84c-1.12,0-2.24.09-3.34-.02-1.77-.18-2.82-1.46-2.74-3.14.07-1.61,1.16-2.77,2.86-2.84,2.1-.08,4.22-.08,6.32,0,1.7.07,2.82,1.39,2.83,3.07,0,1.58-1.09,2.8-2.76,2.93-1.05.08-2.11.02-3.16.02,0,0,0-.01,0-.02Z"/>
    <path class="cls-1" d="M145.98,98.83c1.05,0,2.11-.06,3.16.01,1.68.12,2.81,1.43,2.79,3.12-.02,1.58-1.12,2.82-2.8,2.88-2.1.09-4.22.1-6.32-.01-1.81-.09-2.9-1.33-2.89-3.01,0-1.76,1.17-2.91,3.08-3,.99-.05,1.98,0,2.97,0,0,0,0,0,0,.01Z"/>
  </g>
</svg>