<?xml version="1.0" encoding="UTF-8"?>
<svg id="IA" xmlns="http://www.w3.org/2000/svg" viewBox="0 0 250 150">
  <g>
    <path d="M113.93,100.23c-.23-13.71,11.37-25.15,25.06-25.16,13.69,0,25.14,11.43,25.13,25.14,0,13.69-11.45,25.2-25.16,25.08-13.88-.12-25.02-11.18-25.03-25.06ZM117.67,100.18c.22,11.93,9.46,21.29,21.35,21.29,11.79,0,21.21-9.29,21.27-21.21.05-11.71-9.17-21.31-21.24-21.34-11.81-.03-21.13,9.28-21.37,21.27Z"/>
    <path d="M132.25,98.34c1.19,0,2.38-.05,3.57.02,1,.06,1.39-.25,1.35-1.31-.07-2.23-.03-4.46-.02-6.69,0-1.49.65-2.27,1.84-2.27,1.2,0,1.85.78,1.86,2.26,0,2.3.03,4.61,0,6.91-.01.83.29,1.1,1.11,1.09,2.45-.04,4.91-.02,7.36,0,1.47,0,2.26.67,2.25,1.87-.01,1.18-.8,1.82-2.29,1.83-2.38,0-4.76.04-7.14-.02-.96-.02-1.32.25-1.29,1.25.06,2.27.03,4.53.02,6.8,0,1.45-.7,2.25-1.9,2.22-1.14-.03-1.79-.8-1.8-2.21-.01-2.3-.04-4.61.01-6.91.02-.89-.3-1.16-1.17-1.15-2.42.04-4.83.02-7.25.01-1.49,0-2.28-.64-2.3-1.82-.02-1.24.77-1.87,2.35-1.88,1.15,0,2.3,0,3.46,0Z"/>
  </g>
  <g>
    <path d="M112.04,63.21c-4.21,0-8.41.02-12.62,0-2.65-.02-4.07-1.28-4.05-3.48.03-2.11,1.43-3.36,3.95-3.36,8.62-.02,17.25-.02,25.87,0,2.51,0,3.91,1.25,3.94,3.37.03,2.2-1.4,3.46-4.05,3.47-4.35.02-8.69,0-13.04,0Z"/>
    <path d="M112.16,76.68c-4.28,0-8.55.02-12.83,0-2.52-.02-3.92-1.25-3.95-3.36-.04-2.2,1.39-3.48,4.04-3.48,8.55-.02,17.11-.02,25.66,0,2.65,0,4.08,1.26,4.06,3.46-.02,2.17-1.45,3.37-4.14,3.38-4.28.02-8.55,0-12.83,0Z"/>
    <path d="M123.4,83.3c-8.03-.02-16.05-.02-24.08,0-2.52,0-3.92,1.25-3.94,3.36-.03,2.2,1.4,3.46,4.05,3.48,4.21.03,8.41,0,12.62,0,2.09,0,4.18,0,6.27,0,1.26-2.59,2.99-4.91,5.08-6.84Z"/>
    <path d="M115.99,100.19c0-1.11.11-2.2.26-3.27-.27-.05-.51-.14-.81-.14-5.47-.05-10.93-.05-16.4,0-2.32.02-3.67,1.36-3.66,3.43.01,2.06,1.37,3.35,3.7,3.39,2.66.05,5.33.01,7.99,0,2.8,0,5.61.04,8.41-.02.29,0,.51-.09.77-.14-.15-1.07-.26-2.16-.26-3.27Z"/>
    <path d="M120.27,113.52c-9.86,0-19.72,0-29.58,0-4.19,0-5.24-1.04-5.24-5.21,0-21.11,0-42.22,0-63.33,0-4.22,1.03-5.25,5.18-5.27.56,0,1.13.05,1.68-.01,1.79-.2,2.88.19,3.44,2.26.77,2.84,3.02,4.4,5.98,4.44,7.01.09,14.03.07,21.04,0,3-.03,5.36-1.83,6.14-4.84.42-1.6,1.2-2,2.65-1.88.98.08,1.96,0,2.94.02,3.32.05,4.53,1.25,4.54,4.63.02,10.8,0,21.6,0,32.4v.41c2.44,0,4.79.39,6.99,1.1,0-.48,0-.95,0-1.43,0-11.36.03-22.73-.01-34.09-.02-5.66-4.36-9.93-10.02-10.01-1.61-.02-3.23-.06-4.84,0-1.25.05-1.82-.36-2.18-1.65-.87-3.17-3.14-5.03-6.2-5.06-7.01-.07-14.03-.06-21.04,0-2.6.02-5.03,1.22-5.62,3.66-.8,3.3-2.83,3.23-5.28,3.05-.63-.04-1.26,0-1.89,0-6.33.05-10.51,4.23-10.51,10.6-.01,22.17-.01,44.33,0,66.5,0,6.51,4.14,10.69,10.63,10.69,13.04.02,26.08,0,39.12,0-3.16-1.69-5.87-4.09-7.94-6.99ZM106.47,32.98c1.96-.02,3.92,0,5.87,0,2.66,0,5.32.06,7.97-.02,1.48-.04,1.96.55,1.93,1.98-.09,5.33.51,4.45-4.41,4.5-4.47.05-8.95-.05-13.42.04-1.68.03-2.19-.58-2.15-2.2.11-4.98-.47-4.24,4.21-4.3Z"/>
  </g>
</svg>