<?xml version="1.0" encoding="UTF-8"?>
<svg id="Principal-mis_cursos" xmlns="http://www.w3.org/2000/svg" viewBox="0 0 250 150">
  <path d="M104.78,59.05c2.05,0,4.1-.05,6.15.01,1.64.05,2.54-.74,3.03-2.4,1.26-4.31,2.52-8.63,3.91-12.89,1.83-5.63,7.98-7.35,12.16-3.48,1.12,1.04,1.8,2.38,2.25,3.88,1.25,4.14,2.54,8.27,3.74,12.43.5,1.73,1.43,2.51,3.14,2.48,3.95-.07,7.89-.03,11.84-.02,3.89.01,6.78,2.1,7.86,5.63,1.09,3.58-.06,6.99-3.24,9.51-3.18,2.52-6.38,5.01-9.57,7.5-1.57,1.23-1.82,1.97-1.23,3.95,1.24,4.15,2.5,8.28,3.74,12.43,1.13,3.76.16,7.28-2.58,9.45-2.76,2.18-6.01,2.21-9.02-.06-3.27-2.47-6.48-5.04-9.71-7.57-1.84-1.44-2.68-1.43-4.55.04-3.32,2.59-6.6,5.24-9.97,7.75-2.54,1.88-5.29,2.01-7.98.32-2.61-1.64-3.84-4.18-3.8-7.43,0-.9.27-1.73.53-2.57,1.24-4.09,2.47-8.18,3.7-12.27.62-2.07.38-2.78-1.27-4.08-3.23-2.53-6.48-5.05-9.69-7.6-3-2.38-4.1-5.8-3.07-9.29,1.04-3.51,3.92-5.67,7.65-5.7,2-.02,4,0,6,0ZM105.11,64.81s0,0,0,.01c-2.2,0-4.41,0-6.61,0-1.1,0-1.91.5-2.26,1.61-.34,1.09-.05,2.07.81,2.8.32.27.64.55.97.81,2.98,2.33,5.98,4.66,8.95,7,3.59,2.82,4.54,5.98,3.17,10.52-1.14,3.77-2.28,7.55-3.41,11.32-.11.37-.24.73-.32,1.11-.24,1.14-.19,2.21.83,2.95.98.71,1.94.54,2.85-.18,3.32-2.59,6.64-5.18,9.96-7.76,3.35-2.61,6.56-2.6,9.93.02,3.15,2.46,6.31,4.92,9.45,7.39,1.05.82,2.12,1.46,3.36.49,1.25-.97,1-2.28.6-3.59-1.2-3.98-2.41-7.97-3.6-11.95-1.28-4.25-.31-7.52,3.02-10.15,3.22-2.54,6.46-5.06,9.7-7.58,1.04-.81,1.7-1.82,1.24-3.24-.45-1.37-1.53-1.6-2.75-1.59-3.95.03-7.89.02-11.84,0-4.21-.01-6.79-2.04-8.11-6.38-1.25-4.08-2.47-8.17-3.71-12.26-.42-1.39-1.15-2.35-2.67-2.16-1.22.15-1.69,1.11-2.03,2.2-1.29,4.24-2.54,8.5-3.86,12.73-1.16,3.72-3.87,5.81-7.53,5.87-2.05.03-4.1,0-6.15,0Z"/>
</svg>