<?xml version="1.0" encoding="UTF-8"?>
<svg id="IA" xmlns="http://www.w3.org/2000/svg" viewBox="0 0 250 150">
  <path d="M127.79,27.34c3.09-.17,5.97.55,8.34,2.36,2.19,1.67,4.59,2.13,7.16,2.3,7.18.48,11.64,4.49,14.07,10.99.6,1.59,1.38,2.86,2.77,3.91,6.13,4.66,8.11,10.75,5.94,18.14-.5,1.71-.5,3.27,0,5,2.21,7.46.13,13.53-6.1,18.28-3.3,2.52-4.02,6.13-1.95,9.68,1.84,3.14,3.69,6.27,5.47,9.44,3.45,6.16.96,11.67-6.03,12.09-5.6.34-9.28,2.42-12.25,7.19-3.18,5.1-9.71,4.63-12.9-.45-.8-1.27-1.55-2.57-2.21-3.91-1.05-2.17-.44-4.16,1.48-5.12,1.84-.93,3.69-.3,4.91,1.66,2.48,3.98,2.5,4,5.15.26,5.21-7.32,3.67-5.66,12.2-6.64,3.99-.46,4.01-.27,1.97-3.73-1.3-2.21-2.59-4.43-3.85-6.67-.47-.83-.9-1.46-1.97-.79-2.76,1.74-5.93,1.89-9.05,2.23-3.17.35-5.66,1.92-7.26,4.61-3.46,5.82-6.78,11.73-10.14,17.61-3.14,5.51-9.82,6.21-13.22.9-3.07-4.79-6.89-6.91-12.52-7.19-6.38-.32-9.15-6.25-5.95-11.79,1.99-3.46,4.01-6.91,6.02-10.36,1.55-2.65.74-6.78-1.82-8.64-2.1-1.53-4.01-3.2-5.3-5.49-2.17-3.86-2.7-7.95-1.47-12.19.64-2.2.66-4.23.01-6.47-1.93-6.64.32-13.1,5.9-17.24,1.57-1.17,2.51-2.51,3.09-4.4,1.94-6.35,7.24-10.4,13.9-10.87,2.57-.18,4.96-.6,7.17-2.26,2.42-1.82,5.36-2.65,8.41-2.41ZM114.34,39.39c-4.89-.03-7.97,1.68-9.14,5.56-1.02,3.4-2.89,5.9-5.69,7.99-3.52,2.62-4.68,6.22-3.31,10.44,1.01,3.12.91,6.12-.11,9.22-1.27,3.87-.14,7.5,3.21,9.83,2.89,2.01,4.64,4.55,5.8,7.89,1.35,3.89,3.76,6.02,7.73,5.92,3.76-.09,6.95.99,10.02,3.04,3.39,2.27,6.99,2.12,10.17-.33,2.82-2.18,5.92-2.96,9.35-3.05,4.11-.1,6.81-1.95,7.98-5.86.99-3.3,2.7-5.81,5.57-7.79,3.47-2.4,4.67-5.93,3.39-9.98-1.06-3.35-.92-6.54.12-9.85,1.13-3.58-.07-7.25-3.11-9.28-3.05-2.04-5.02-4.65-6.09-8.2-1.11-3.68-3.91-5.52-7.76-5.56-3.37-.03-6.4-.83-9.24-2.79-4.07-2.82-7.42-2.65-11.43.31-2.33,1.72-4.85,2.69-7.48,2.5ZM104.86,101.03c-.6-.02-.86.32-1.08.69-1.77,3.01-3.53,6.03-5.32,9.04-.56.94-.15,1.29.76,1.39,2.34.26,4.67.58,7.01.75,2.14.15,3.82.95,5.05,2.75,1.37,2,2.86,3.92,4.24,5.92.75,1.09,1.26,1.16,1.95-.06,2.29-4.03,4.62-8.04,6.97-12.04.73-1.23.37-1.79-.94-2.09-1.54-.36-3.05-.94-4.27-1.92-1.75-1.4-3.68-2.08-5.89-2.12-2.75-.06-5.38-.58-7.78-2.01-.24-.14-.52-.22-.7-.3Z"/>
  <path d="M124.75,75.83c-3.05.01-7.88-3.39-8.86-6.24-.5-1.45-.09-2.69.98-3.69,1.15-1.08,2.53-1.24,3.97-.64.45.19.86.51,1.24.82q2.79,2.36,5.35-.21c2.07-2.07,4.11-4.15,6.21-6.19,1.93-1.87,3.95-2.08,5.49-.66,1.59,1.47,1.57,3.79-.25,5.69-2.86,2.98-5.82,5.87-8.78,8.76-1.47,1.44-3.24,2.3-5.35,2.36Z"/>
</svg>