<?xml version="1.0" encoding="UTF-8"?>
<svg id="Principal-mis_cursos" xmlns="http://www.w3.org/2000/svg" viewBox="0 0 250 150">
  <defs>
    <style>
      .cls-1 {
        fill: #888;
      }
    </style>
  </defs>
  <path class="cls-1" d="M117.18,51.78c5.34,0,10.69,0,16.03,0,3.25,0,4.39,1.25,4.54,4.45.12,2.52-.56,4.57-2.08,6.6-3.56,4.73-6.9,9.62-10.36,14.41-.51.71-.72,1.42-.71,2.28.02,4.77.02,9.54,0,14.3,0,3.07-1.3,4.37-4.34,4.38-2.18,0-4.36.02-6.54,0-2.58-.04-3.95-1.41-3.97-4.01-.03-4.89-.02-9.78,0-14.67,0-.86-.2-1.57-.71-2.28-3.68-5.1-7.23-10.29-11.02-15.31-1.8-2.39-1.54-4.95-1.21-7.53.22-1.71,1.77-2.61,3.82-2.61,5.51-.02,11.02,0,16.52,0ZM117.27,56.07c-4.81,0-9.61,0-14.42,0-1.91,0-2.57,1.17-1.63,2.91.16.29.36.55.55.82,3.72,5.21,7.43,10.44,11.19,15.63.76,1.05,1.11,2.14,1.1,3.43-.04,4.6,0,9.2-.03,13.8,0,.97.32,1.33,1.28,1.28,1.19-.06,2.39-.08,3.57,0,1.15.08,1.48-.35,1.47-1.48-.05-4.64,0-9.28-.03-13.93,0-1.03.25-1.93.85-2.77,2.52-3.5,5.02-7.01,7.53-10.52,1.41-1.97,2.8-3.96,4.23-5.91.65-.89.71-1.92.38-2.82-.31-.86-1.31-.43-1.99-.44-4.68-.04-9.37-.02-14.05-.02Z"/>
  <path class="cls-1" d="M143.43,79.68c-2.42,0-4.85.01-7.27,0-1.54-.01-2.51-.76-2.56-1.92-.06-1.31.92-2.23,2.55-2.24,4.89-.03,9.78-.03,14.67,0,1.57.01,2.59.9,2.59,2.08,0,1.22-1.09,2.07-2.7,2.08-2.42.01-4.85,0-7.27,0Z"/>
  <path class="cls-1" d="M144.87,86.1c1.97,0,3.94-.01,5.9,0,1.54.01,2.58.83,2.63,2.01.05,1.18-.96,2.12-2.51,2.14-4.06.04-8.12.04-12.18,0-1.54-.02-2.56-.96-2.51-2.14.05-1.19,1.09-2,2.63-2.01,2.01-.02,4.02,0,6.03,0Z"/>
  <path class="cls-1" d="M146.07,69.09c-1.64,0-3.28.02-4.92,0-1.44-.03-2.29-.83-2.25-2.04.04-1.16.86-1.91,2.25-1.92,3.32-.02,6.65-.02,9.97,0,1.4,0,2.31.87,2.27,2.04-.04,1.14-.91,1.9-2.27,1.92-1.68.02-3.36,0-5.05,0Z"/>
  <path class="cls-1" d="M147.52,54.52c1.15,0,2.3-.02,3.45,0,1.37.03,2.36.86,2.44,1.96.08,1.11-.84,2.12-2.22,2.16-2.46.08-4.93.08-7.39,0-1.52-.06-2.36-.99-2.3-2.21.06-1.12,1-1.88,2.45-1.9,1.19-.02,2.38,0,3.57,0Z"/>
  <path class="cls-1" d="M134.94,88.18c0,1.02-.93,1.96-1.94,1.98-1.06.02-2.03-.96-2.01-2.03.02-1.08.88-1.95,1.94-1.97,1.1-.02,2.02.9,2.01,2.02Z"/>
</svg>