<?xml version="1.0" encoding="UTF-8"?>
<svg id="IA" xmlns="http://www.w3.org/2000/svg" viewBox="0 0 250 150">
  <defs>
    <style>
      .cls-1 {
        fill: none;
        fill-rule: evenodd;
        stroke: #907fe8;
        stroke-linecap: round;
        stroke-linejoin: round;
        stroke-width: 3.61px;
      }
    </style>
  </defs>
  <path class="cls-1" d="M144.74,83.93c-2.91-2.37-6.27-4.3-10.06-5.76-3.05,1.95-6.66,3.09-10.54,3.09s-7.49-1.14-10.54-3.09c-3.04,1.17-5.8,2.64-8.27,4.4"/>
  <path class="cls-1" d="M93.44,108.29c4.26,3.95,14.6,11.6,30.7,11.6s25.46-6.96,30.06-11.03"/>
  <path class="cls-1" d="M124.14,74.41c7.42,0,13.44-6.02,13.44-13.44s-6.02-13.45-13.44-13.45-13.45,6.02-13.45,13.45,6.02,13.44,13.45,13.44Z"/>
  <path class="cls-1" d="M182.65,70.64c-3.05,1.95-6.66,3.09-10.54,3.09s-7.49-1.14-10.54-3.09c-7.25,2.79-12.91,7.31-16.83,13.29,6.51,5.3,10.72,12.78,12.33,22.06,0,0-.97,1.19-2.87,2.87,4.83,2.01,10.81,3.5,17.91,3.5,21.68,0,32.93-13.9,32.93-13.9-2.32-13.43-10.1-23.09-22.39-27.82Z"/>
  <path class="cls-1" d="M154.2,108.86c1.9-1.68,2.87-2.87,2.87-2.87-1.6-9.28-5.82-16.76-12.33-22.06"/>
  <path class="cls-1" d="M172.11,66.88c7.42,0,13.44-6.02,13.44-13.44s-6.02-13.44-13.44-13.44-13.45,6.02-13.45,13.44,6.02,13.44,13.45,13.44Z"/>
  <path class="cls-1" d="M91.21,105.99c1.75-10.11,6.59-18.08,14.12-23.42-3.92-6.04-9.61-10.59-16.9-13.4-3.05,1.95-6.66,3.09-10.54,3.09s-7.49-1.14-10.54-3.09c-12.29,4.74-20.07,14.39-22.39,27.82,0,0,11.25,13.9,32.93,13.9,5.99,0,11.18-1.06,15.55-2.6-1.48-1.37-2.23-2.29-2.23-2.29Z"/>
  <path class="cls-1" d="M77.89,65.4c7.43,0,13.44-6.02,13.44-13.44s-6.02-13.45-13.44-13.45-13.44,6.02-13.44,13.45,6.02,13.44,13.44,13.44Z"/>
</svg>