<?xml version="1.0" encoding="UTF-8"?>
<svg id="Calendario" xmlns="http://www.w3.org/2000/svg" viewBox="0 0 250 150">
  <defs>
    <style>
		.cls-1 {
		fill: none;
		}

		.cls-2 {
		fill: #ffffff;;
		}
	</style>
  </defs>
  <g>
    <path class="cls-2" d="M103.71,49.67c-1.77.09-3.09,1.68-3.09,3.44v43.28c0,1.77,1.32,3.35,3.09,3.44,1.88.1,3.44-1.4,3.44-3.26v-43.65c0-1.86-1.56-3.36-3.44-3.26Z"/>
    <g>
      <path class="cls-1" d="M137.35,64.15c-.75-2.04-3.65-2.04-4.4,0l-4.31,11.71-.37,1.02c-.56,1.53.57,3.15,2.2,3.15h9.36c1.63,0,2.76-1.62,2.2-3.15l-4.68-12.73Z"/>
      <path class="cls-2" d="M155.73,95.19l-15.54-41.51c-.52-1.39-1.51-2.51-2.73-3.22-.24-.14-.49-.27-.75-.38-.99-.42-2.12-.42-3.11,0-.26.11-.51.24-.75.38-1.23.72-2.21,1.83-2.73,3.22l-15.54,41.51c-.7,1.87.26,3.98,2.19,4.46,1.68.42,3.32-.5,3.88-2.04l2.79-7.59c.81-2.21,2.91-3.67,5.27-3.67h12.89c2.35,0,4.45,1.47,5.27,3.67l2.79,7.59c.57,1.54,2.21,2.46,3.88,2.04,1.93-.48,2.89-2.59,2.19-4.46ZM139.84,80.03h-9.36c-1.63,0-2.76-1.62-2.2-3.15l.37-1.02,4.31-11.71c.75-2.05,3.65-2.05,4.4,0l4.68,12.73c.56,1.53-.57,3.15-2.2,3.15Z"/>
    </g>
  </g>
  <path class="cls-2" d="M151.02,40.01c8.62,0,15.63,7.48,15.63,16.67v34.07c.01.71.02,1.17.03,1.56.02,3.04.77,6.06,2.15,8.72,1.62,3.13,3.06,6.74,4.08,9.79l-16.39-3.07c-1.08-.2-2.18-.32-3.27-.36-.28,0-.58-.02-.86-.04-.49-.03-.96-.05-1.37-.05h-59.95c-8.62,0-15.63-7.48-15.63-16.67v-33.96c0-9.19,7.01-16.67,15.63-16.67h59.95M151.02,34.01h-59.95c-11.95,0-21.63,10.15-21.63,22.67v33.96c0,12.52,9.68,22.67,21.63,22.67h59.95c.45,0,1.31.06,2.03.09.79.03,1.58.11,2.36.26l18.93,3.55s.87.2,1.92.2c1.95,0,4.55-.7,3.49-4.67-.96-3.63-3-9.45-5.6-14.46-.96-1.85-1.46-3.91-1.48-6.01,0-.41-.01-.88-.03-1.62v-33.96c0-12.52-9.68-22.67-21.63-22.67h0Z"/>
</svg>