<svg version="1.1" xmlns="http://www.w3.org/2000/svg" xmlns:xlink="http://www.w3.org/1999/xlink" width="250px" height="150px" viewBox="0,0,256,153.59375"><g fill="none" fill-rule="nonzero" stroke="none" stroke-width="none" stroke-linecap="none" stroke-linejoin="none" stroke-miterlimit="10" stroke-dasharray="" stroke-dashoffset="0" font-family="none" font-weight="none" font-size="none" text-anchor="none" style="mix-blend-mode: normal"><g transform="translate(0,0.47816) scale(1.024,1.024)"><g fill="#000000" stroke="none" stroke-width="1" stroke-linecap="butt" stroke-linejoin="miter"><g><path d="M91.49,81.78c-0.16,-0.04 -0.14,-0.16 -0.09,-0.29c0.16,-0.43 0.56,-1.45 1.07,-2.78c1.32,-3.42 4.62,-11.97 5.25,-13.59c0.13,-0.44 0.61,-0.34 1.05,-0.37c0.62,0 1.66,0 2.36,0c0.61,0.05 1.07,-0.12 1.27,0.37c0.73,1.92 4.85,12.38 6.39,16.5c0.02,0.17 -0.17,0.2 -0.74,0.21c-0.62,0 -1.71,0 -2.37,0c-0.44,-0.03 -0.87,0.04 -1.03,-0.32c-0.8,-2.14 -3.57,-10.06 -4.45,-12.43c-0.17,-0.47 -0.28,-0.04 -0.39,0.23c-0.72,1.97 -3.71,10.22 -4.38,12.03c-0.07,0.17 -0.12,0.32 -0.29,0.4c-0.14,0.07 -0.39,0.09 -0.76,0.1c-0.88,-0.02 -2.03,0.06 -2.86,-0.04h-0.02z"></path><path d="M111.08,81.78c-0.16,-0.04 -0.19,-0.16 -0.19,-0.3c0,-3.96 0,-14.53 0,-16.34c0,-0.14 0,-0.26 0.12,-0.33c1.06,-0.13 2.3,-0.01 4.01,-0.05c1.37,0.01 3.21,-0.03 4.41,0.03c1.47,0.08 3.16,0.63 4.16,1.8c2.21,2.51 1.8,7.37 -1.26,9.12c-1.63,0.94 -3.09,0.9 -5.03,0.9c-0.65,0.03 -1.95,-0.07 -2.35,0.1c-0.3,0.15 -0.26,0.54 -0.28,0.84c0,0.91 0.02,2.63 0,3.47c0.06,0.98 -0.78,0.79 -1.54,0.82c-0.61,0 -1.57,0.03 -2.04,-0.05h-0.02zM114.82,73.24c0.41,0.2 1.63,0.07 2.23,0.11c1.37,-0.02 2.6,0.06 3.49,-0.94c0.66,-0.86 0.7,-2.27 0.2,-3.24c-0.47,-0.86 -1.53,-1.09 -2.43,-1.15c-0.9,-0.04 -2.1,-0.02 -2.94,-0.02c-0.26,0 -0.44,0.03 -0.55,0.11c-0.22,0.09 -0.16,0.82 -0.17,1.28c0,0.92 0,1.93 0,2.79c0,0.56 -0.03,0.9 0.15,1.03h0.02z"></path><path d="M127.86,81.78c-0.16,-0.04 -0.19,-0.16 -0.19,-0.3c0,-2.23 0,-6.22 0,-9.04c0,-3.27 0,-6.36 0,-7.29c0,-0.19 0,-0.36 0.25,-0.37c2.2,-0.03 5.9,-0.06 8.36,0.02c2.4,0.1 4.92,1.51 5.39,4.06c0.34,1.61 0.03,3.48 -1.08,4.67c-2.04,2.2 -5.2,2.15 -8,2.14c-0.73,0 -1.15,0.04 -1.11,0.88c0,1.05 0,3.29 0,4.37c0.07,1.06 -0.57,0.9 -1.44,0.92c-0.64,0 -1.64,0.04 -2.14,-0.05h-0.02zM131.59,72.52c0.38,0.22 1.64,0.08 2.24,0.12c1.37,-0.03 2.46,0.1 3.47,-0.72c0.63,-0.56 0.82,-1.56 0.58,-2.37c-0.23,-0.86 -0.98,-1.29 -1.81,-1.43c-0.75,-0.15 -1.67,-0.11 -2.65,-0.12c-0.55,0.04 -1.35,-0.1 -1.82,0.12c-0.22,0.1 -0.17,0.8 -0.18,1.29c0,0.64 0,1.43 0,2.02c0,0.57 -0.02,0.93 0.15,1.07h0.02zM138.59,81.8c-0.13,-0.05 -0.21,-0.14 -0.29,-0.26c-0.18,-0.26 -0.46,-0.76 -0.85,-1.38c-0.94,-1.57 -2.34,-3.86 -2.77,-4.6c-0.37,-0.55 0.64,-0.52 1.08,-0.66c0.58,-0.11 1.44,-0.29 1.95,-0.36c0.45,-0.05 0.55,0.06 0.79,0.43c0.87,1.39 3.48,5.42 4.21,6.66c0.24,0.4 -1.28,0.2 -1.68,0.25c-0.72,-0.02 -1.88,0.07 -2.41,-0.07h-0.02z"></path><path d="M161.21,81.77c-0.18,-0.05 -0.21,-0.18 -0.22,-0.35c0,-0.53 0,-1.78 0,-3.38c0.03,-3.25 -0.07,-11.04 0.04,-13.07c0.15,-0.23 0.4,-0.18 0.75,-0.21c0.48,-0.01 1.06,-0.01 1.55,0c0.84,0 1.09,0.04 1.62,0.76c2.14,2.55 6.5,7.74 7.64,9.09c0.11,0.1 0.23,0.31 0.31,0.19c0.09,-0.57 0.03,-1.18 0.05,-2.01c0,-2.17 -0.01,-5.43 0,-7.45c-0.04,-0.56 0.5,-0.57 0.93,-0.58c0.58,0 1.47,0 2.01,0c0.32,0.02 0.83,-0.04 0.81,0.4c0.01,3.78 0,13.62 0,16.22c0.02,0.3 -0.19,0.4 -0.47,0.42c-0.65,0.01 -1.89,0.13 -2.59,-0.1c-1.66,-1.65 -6.29,-7.58 -8.67,-10.28c-0.24,-0.26 -0.2,0.17 -0.22,0.36c0,1.58 0,7.64 0,9.37c0,0.18 0,0.37 -0.11,0.49c-0.09,0.1 -0.25,0.14 -0.51,0.16c-0.4,0.03 -1.08,0.02 -1.68,0.02c-0.57,0 -1,0 -1.21,-0.06h-0.02z"></path><path d="M180.52,81.78c-0.09,-0.04 -0.11,-0.1 -0.12,-0.19c-0.02,-0.43 0,-1.82 0,-3.64c0,-4.55 0,-11.74 0,-12.91c0,-0.31 0.36,-0.26 0.63,-0.27c0.98,0 3.68,0 4.94,0c2.22,-0.03 4.61,0.21 6.55,1.46c2.41,1.48 3.51,4.18 3.51,6.91c0.06,2.85 -0.96,5.46 -3.24,7.03c-2.41,1.65 -4.93,1.72 -7.87,1.69c-1.35,-0.03 -3.21,0.08 -4.39,-0.05h-0.01zM184.41,78.45c0.3,0.1 1.33,0.06 1.98,0.06c1.68,0 3.52,-0.3 4.64,-1.66c1.28,-1.49 1.36,-3.97 0.79,-5.85c-0.49,-1.6 -2.02,-2.62 -3.65,-2.8c-0.55,-0.08 -1.07,-0.11 -1.68,-0.12c-0.72,0 -1.55,-0.03 -1.96,0.04c-0.24,0.05 -0.33,0.13 -0.35,0.34c-0.02,1.76 -0.01,7.1 0,9.67c0.01,0.14 0.06,0.26 0.21,0.31h0.02z"></path></g><path d="M227.76,80.29v-5.16h-5.1v-3.52h5.07v-5.19h3.77v5.16h5.07v3.52h-5.04v5.19z"></path><g><path d="M157.72,78.52h-8.43c-0.33,0 -0.59,-0.26 -0.59,-0.59v-9.29c0,-0.33 0.26,-0.59 0.59,-0.59h8.22c0.29,0 0.53,-0.24 0.53,-0.53v-2.23c0,-0.29 -0.24,-0.53 -0.53,-0.53h-12.12c-0.24,0 -0.44,0.2 -0.44,0.44v16.26c0,0.24 0.19,0.43 0.43,0.43h12.32c0.3,0 0.54,-0.24 0.54,-0.54v-2.28c0,-0.3 -0.24,-0.54 -0.54,-0.54z"></path><path d="M145.59,72.62h10.74c0.28,0 0.5,0.22 0.5,0.5v2.29c0,0.28 -0.23,0.5 -0.5,0.5h-10.07c-0.6,0 -1.08,-0.48 -1.08,-1.08v-1.8c0,-0.23 0.18,-0.41 0.41,-0.41z"></path></g><g><path d="M211.42,78.56h-8.43c-0.33,0 -0.59,-0.26 -0.59,-0.59v-9.29c0,-0.33 0.26,-0.59 0.59,-0.59h8.22c0.29,0 0.53,-0.24 0.53,-0.53v-2.23c0,-0.29 -0.24,-0.53 -0.53,-0.53h-12.12c-0.24,0 -0.44,0.2 -0.44,0.44v16.26c0,0.24 0.19,0.43 0.43,0.43h12.32c0.3,0 0.54,-0.24 0.54,-0.54v-2.28c0,-0.3 -0.24,-0.54 -0.54,-0.54z"></path><path d="M199.29,72.67h10.74c0.28,0 0.5,0.22 0.5,0.5v2.29c0,0.28 -0.23,0.5 -0.5,0.5h-10.07c-0.6,0 -1.08,-0.48 -1.08,-1.08v-1.8c0,-0.23 0.18,-0.41 0.41,-0.41z"></path></g></g><g><path d="M83.19,71.91c0,-5.18 -3.78,-9.47 -8.72,-10.28v-0.83c0,-6.89 -5.59,-12.48 -12.48,-12.48h-27.47c-6.89,0 -12.48,5.59 -12.48,12.48v0.85c-4.89,0.86 -8.61,5.12 -8.61,10.26c0,5.14 3.72,9.41 8.61,10.26v6.09c0,6.89 5.59,12.48 12.48,12.48h27.47c6.89,0 12.48,-5.59 12.48,-12.48v-6.07c4.95,-0.81 8.72,-5.11 8.72,-10.28z" fill="none" stroke="#000000" stroke-width="2.57" stroke-linecap="round" stroke-linejoin="round"></path><path d="M38.24,75.2c1.03,0.01 1.51,-1.34 1.77,-1.99c0.77,-2.31 0.9,-4.8 0.66,-7.25c-0.13,-1.17 -0.38,-2.37 -0.86,-3.46c-1.46,-3.2 -2.91,-1.53 -3.54,0.64c-0.84,2.73 -0.79,6.51 -0.05,9.21c0.22,0.93 1.02,2.82 2.01,2.85v0z" fill="#000000" stroke="none" stroke-width="1" stroke-linecap="butt" stroke-linejoin="miter"></path><path d="M63.75,73.63c0.21,-2.98 -3.3,-9.49 -5.72,-11.43c-1.22,-0.99 -2.37,-0.79 -3.47,0.22c-1.51,1.35 -3,3.9 -3.96,5.91c-0.47,0.99 -0.9,2.03 -1.19,3.06c-0.28,0.99 -0.8,3.52 0.75,3.1c1.39,-0.53 2.58,-2.71 3.64,-3.89c0.79,-0.88 1.68,-2.57 2.91,-2.42c1.22,0.21 1.64,1.28 2.45,2.15c0.91,1.06 4.25,5.81 4.6,3.31v0z" fill="#000000" stroke="none" stroke-width="1" stroke-linecap="butt" stroke-linejoin="miter"></path></g></g></g></svg>