<?xml version="1.0" encoding="UTF-8"?>
<svg id="IA" xmlns="http://www.w3.org/2000/svg" viewBox="0 0 250 150">
  <defs>
    <style>
      .cls-1 {
        fill: #fff;
      }

      .cls-2 {
        fill: none;
        stroke: #fff;
        stroke-linecap: round;
        stroke-linejoin: round;
        stroke-width: 3.4px;
      }
    </style>
  </defs>
  <g>
    <g>
      <path class="cls-1" d="M21.54,128.59c-.23-.06-.2-.24-.13-.42.24-.63.81-2.12,1.56-4.06,1.93-5,6.74-17.48,7.66-19.85.2-.64.89-.5,1.53-.54.9,0,2.42,0,3.44,0,.89.07,1.57-.18,1.86.54,1.07,2.81,7.09,18.09,9.34,24.1.03.24-.25.29-1.09.31-.9,0-2.5,0-3.46,0-.65-.04-1.26.06-1.51-.47-1.18-3.12-5.21-14.7-6.5-18.16-.25-.68-.41-.05-.57.33-1.05,2.88-5.43,14.93-6.39,17.58-.1.24-.18.46-.42.58-.21.1-.57.13-1.11.15-1.28-.03-2.97.09-4.18-.07h-.02Z"/>
      <path class="cls-1" d="M50.16,128.58c-.23-.06-.28-.23-.28-.44,0-5.78,0-21.22,0-23.88,0-.2,0-.39.18-.48,1.55-.19,3.35-.02,5.86-.07,2.01.02,4.68-.05,6.44.05,2.14.12,4.61.92,6.08,2.63,3.23,3.67,2.62,10.76-1.85,13.33-2.39,1.38-4.52,1.31-7.35,1.31-.95.04-2.84-.11-3.43.15-.45.22-.38.79-.41,1.22,0,1.33.03,3.84.01,5.06.08,1.43-1.14,1.15-2.24,1.19-.89,0-2.29.05-2.97-.07h-.03ZM55.63,116.11c.6.29,2.38.11,3.26.16,2-.03,3.8.09,5.1-1.37.96-1.26,1.02-3.32.29-4.73-.68-1.25-2.24-1.59-3.54-1.67-1.32-.06-3.07-.03-4.3-.02-.38.01-.64.05-.8.16-.32.14-.23,1.2-.25,1.88,0,1.34,0,2.82,0,4.08,0,.82-.04,1.31.22,1.5l.02.02Z"/>
      <path class="cls-1" d="M74.68,128.58c-.23-.06-.28-.23-.28-.44,0-3.26,0-9.09,0-13.21,0-4.77,0-9.29,0-10.64,0-.28,0-.52.36-.55,3.21-.04,8.62-.09,12.21.03,3.51.15,7.19,2.21,7.88,5.93.5,2.35.05,5.08-1.58,6.82-2.97,3.21-7.59,3.14-11.69,3.12-1.07.01-1.68.06-1.62,1.28,0,1.54,0,4.81,0,6.39.11,1.54-.83,1.31-2.1,1.34-.93-.01-2.4.05-3.13-.07h-.03ZM80.13,115.05c.56.32,2.4.12,3.28.18,2.01-.04,3.59.14,5.07-1.05.92-.82,1.2-2.28.85-3.46-.34-1.25-1.43-1.88-2.65-2.09-1.09-.22-2.45-.16-3.87-.17-.81.05-1.97-.15-2.66.17-.33.14-.26,1.16-.26,1.89,0,.93,0,2.08,0,2.95,0,.84-.03,1.35.22,1.56l.02.02ZM90.35,128.61c-.18-.07-.31-.21-.42-.37-.26-.38-.68-1.11-1.24-2.02-1.38-2.29-3.42-5.64-4.05-6.72-.54-.81.94-.77,1.58-.96.84-.16,2.1-.42,2.85-.52.65-.08.81.09,1.15.62,1.26,2.03,5.08,7.92,6.15,9.73.35.58-1.87.29-2.46.36-1.06-.04-2.74.1-3.53-.11h-.03Z"/>
      <path class="cls-1" d="M123.4,128.57c-.26-.07-.31-.27-.32-.5,0-.78,0-2.61,0-4.93.04-4.74-.1-16.13.06-19.09.23-.34.58-.26,1.09-.31.7-.02,1.55-.02,2.26,0,1.22,0,1.59.05,2.37,1.1,3.13,3.72,9.49,11.31,11.16,13.28.15.15.34.45.45.27.14-.83.04-1.73.07-2.93,0-3.17-.02-7.94,0-10.88-.06-.83.73-.83,1.36-.85.85-.01,2.15-.01,2.94,0,.46.03,1.22-.05,1.18.59.02,5.52,0,19.9,0,23.7.03.44-.28.59-.69.61-.95.02-2.76.19-3.78-.15-2.43-2.4-9.19-11.07-12.67-15.01-.35-.38-.3.25-.32.53-.01,2.31,0,11.17,0,13.69-.01.26,0,.54-.17.72-.13.14-.37.2-.75.23-.58.04-1.58.03-2.46.03-.84,0-1.46,0-1.76-.09h-.03Z"/>
      <path class="cls-1" d="M151.61,128.58c-.12-.06-.16-.15-.17-.28-.03-.64,0-2.67-.01-5.32,0-6.65-.01-17.15,0-18.86,0-.45.53-.37.92-.4,1.43,0,5.37,0,7.22,0,3.25-.05,6.74.31,9.57,2.13,3.53,2.16,5.14,6.11,5.12,10.09.09,4.16-1.4,7.97-4.73,10.27-3.52,2.4-7.2,2.51-11.5,2.47-1.98-.05-4.69.11-6.42-.07h-.02ZM157.3,123.72c.45.15,1.94.09,2.89.09,2.45,0,5.14-.44,6.78-2.43,1.86-2.18,1.99-5.8,1.16-8.54-.72-2.34-2.95-3.83-5.33-4.09-.8-.12-1.57-.16-2.46-.18-1.05,0-2.27-.04-2.86.06-.35.07-.48.19-.51.5-.04,2.57-.02,10.37,0,14.12.01.21.09.38.31.45h.03Z"/>
    </g>
    <path class="cls-1" d="M220.63,126.41v-7.54h-7.45v-5.15h7.4v-7.58h5.51v7.54h7.4v5.15h-7.36v7.58h-5.51Z"/>
    <g>
      <path class="cls-1" d="M118.3,123.82h-12.31c-.47,0-.86-.38-.86-.86v-13.57c0-.47.38-.86.86-.86h12.01c.43,0,.78-.35.78-.78v-3.26c0-.43-.35-.78-.78-.78h-17.7c-.35,0-.64.29-.64.64v23.76c0,.35.28.63.63.63h18c.44,0,.79-.36.79-.79v-3.34c0-.44-.35-.79-.79-.79Z"/>
      <path class="cls-1" d="M100.58,115.21h15.69c.4,0,.73.33.73.73v3.35c0,.41-.33.73-.73.73h-14.71c-.87,0-1.58-.71-1.58-1.58v-2.63c0-.33.27-.6.6-.6Z"/>
    </g>
    <g>
      <path class="cls-1" d="M196.75,123.89h-12.31c-.47,0-.86-.38-.86-.86v-13.57c0-.47.38-.86.86-.86h12.01c.43,0,.78-.35.78-.78v-3.26c0-.43-.35-.78-.78-.78h-17.7c-.35,0-.64.29-.64.64v23.76c0,.35.28.63.63.63h18c.44,0,.79-.36.79-.79v-3.34c0-.44-.35-.79-.79-.79Z"/>
      <path class="cls-1" d="M179.03,115.28h15.69c.4,0,.73.33.73.73v3.35c0,.41-.33.73-.73.73h-14.71c-.87,0-1.58-.71-1.58-1.58v-2.63c0-.33.27-.6.6-.6Z"/>
    </g>
  </g>
  <path class="cls-2" d="M165.33,51.53c0-6.86-5.01-12.56-11.57-13.63v-1.1c0-9.14-7.41-16.54-16.54-16.54h-36.42c-9.14,0-16.54,7.41-16.54,16.54v1.13c-6.49,1.14-11.42,6.79-11.42,13.61s4.93,12.47,11.42,13.61v8.07c0,9.14,7.41,16.54,16.54,16.54h36.42c9.14,0,16.54-7.41,16.54-16.54v-8.05c6.56-1.08,11.57-6.77,11.57-13.63Z"/>
  <path class="cls-1" d="M105.73,55.89c1.37.02,2-1.78,2.34-2.64,1.02-3.06,1.2-6.37.87-9.61-.18-1.55-.5-3.15-1.14-4.59-1.93-4.25-3.86-2.03-4.69.85-1.11,3.62-1.05,8.63-.07,12.21.29,1.24,1.35,3.74,2.67,3.78h.01Z"/>
  <path class="cls-1" d="M139.56,53.81c.28-3.95-4.38-12.58-7.58-15.16-1.62-1.31-3.15-1.04-4.6.29-2,1.79-3.98,5.17-5.25,7.83-.62,1.31-1.2,2.69-1.58,4.06-.37,1.32-1.07,4.67.99,4.11,1.84-.71,3.42-3.6,4.82-5.16,1.05-1.17,2.23-3.4,3.86-3.2,1.62.28,2.18,1.7,3.24,2.86,1.21,1.41,5.63,7.71,6.1,4.38h0Z"/>
</svg>