<?xml version="1.0" encoding="UTF-8"?>
<!DOCTYPE svg PUBLIC "-//W3C//DTD SVG 1.1//EN" "http://www.w3.org/Graphics/SVG/1.1/DTD/svg11.dtd">
<svg xmlns="http://www.w3.org/2000/svg" version="1.1" width="484px" height="515px" style="shape-rendering:geometricPrecision; text-rendering:geometricPrecision; image-rendering:optimizeQuality; fill-rule:evenodd; clip-rule:evenodd" xmlns:xlink="http://www.w3.org/1999/xlink">
<g><path style="opacity:0.004" fill="#fefffe" d="M 44.5,13.5 C 45.8333,14.1667 45.8333,14.1667 44.5,13.5 Z"/></g>
<g><path style="opacity:0.004" fill="#fefffe" d="M 105.5,23.5 C 106.833,24.1667 106.833,24.1667 105.5,23.5 Z"/></g>
<g><path style="opacity:0.004" fill="#fefffe" d="M 408.5,28.5 C 409.833,29.1667 409.833,29.1667 408.5,28.5 Z"/></g>
<g><path style="opacity:0.004" fill="#fefffe" d="M 343.5,34.5 C 344.833,35.1667 344.833,35.1667 343.5,34.5 Z"/></g>
<g><path style="opacity:0.004" fill="#fefffe" d="M 432.5,34.5 C 433.833,35.1667 433.833,35.1667 432.5,34.5 Z"/></g>
<g><path style="opacity:0.004" fill="#fefffe" d="M 35.5,35.5 C 36.8333,36.1667 36.8333,36.1667 35.5,35.5 Z"/></g>
<g><path style="opacity:0.004" fill="#fefffe" d="M 1.5,41.5 C 2.83333,42.1667 2.83333,42.1667 1.5,41.5 Z"/></g>
<g><path style="opacity:0.004" fill="#fefffe" d="M 32.5,41.5 C 33.8333,42.1667 33.8333,42.1667 32.5,41.5 Z"/></g>
<g><path style="opacity:0.004" fill="#fefffe" d="M 248.5,41.5 C 249.833,42.1667 249.833,42.1667 248.5,41.5 Z"/></g>
<g><path style="opacity:0.004" fill="#fefffe" d="M 472.5,48.5 C 473.833,49.1667 473.833,49.1667 472.5,48.5 Z"/></g>
<g><path style="opacity:0.004" fill="#fefffe" d="M 111.5,55.5 C 112.833,56.1667 112.833,56.1667 111.5,55.5 Z"/></g>
<g><path style="opacity:0.004" fill="#fefffe" d="M 201.5,57.5 C 202.833,58.1667 202.833,58.1667 201.5,57.5 Z"/></g>
<g><path style="opacity:0.004" fill="#fefffe" d="M 294.5,62.5 C 295.833,63.1667 295.833,63.1667 294.5,62.5 Z"/></g>
<g><path style="opacity:0.004" fill="#fefffe" d="M 332.5,70.5 C 333.833,71.1667 333.833,71.1667 332.5,70.5 Z"/></g>
<g><path style="opacity:0.004" fill="#fefffe" d="M 197.5,86.5 C 198.833,87.1667 198.833,87.1667 197.5,86.5 Z"/></g>
<g><path style="opacity:0.004" fill="#fefffe" d="M 210.5,90.5 C 211.833,91.1667 211.833,91.1667 210.5,90.5 Z"/></g>
<g><path style="opacity:0.004" fill="#fefffe" d="M 348.5,97.5 C 349.833,98.1667 349.833,98.1667 348.5,97.5 Z"/></g>
<g><path style="opacity:0.004" fill="#fefffe" d="M 72.5,100.5 C 73.8333,101.167 73.8333,101.167 72.5,100.5 Z"/></g>
<g><path style="opacity:0.004" fill="#fefffe" d="M 424.5,102.5 C 425.833,103.167 425.833,103.167 424.5,102.5 Z"/></g>
<g><path style="opacity:0.227" fill="#a6d0e1" d="M 159.5,108.5 C 151.505,108 143.505,107.5 135.5,107C 130.108,104.632 124.442,103.965 118.5,105C 113.998,108.67 109.665,112.503 105.5,116.5C 108.982,110.853 113.649,106.353 119.5,103C 122.5,102.333 125.5,102.333 128.5,103C 138.904,105.239 149.237,107.073 159.5,108.5 Z"/></g>
<g><path style="opacity:0.004" fill="#fefffe" d="M 315.5,109.5 C 316.833,110.167 316.833,110.167 315.5,109.5 Z"/></g>
<g><path style="opacity:0.004" fill="#fefffe" d="M 263.5,111.5 C 264.833,112.167 264.833,112.167 263.5,111.5 Z"/></g>
<g><path style="opacity:0.004" fill="#fefffe" d="M 377.5,111.5 C 378.833,112.167 378.833,112.167 377.5,111.5 Z"/></g>
<g><path style="opacity:0.004" fill="#fefffe" d="M 250.5,114.5 C 251.833,115.167 251.833,115.167 250.5,114.5 Z"/></g>
<g><path style="opacity:1" fill="#0c6e9c" d="M 223.5,120.5 C 230.065,120.129 235.398,122.462 239.5,127.5C 240.338,127.842 240.672,128.508 240.5,129.5C 240.674,131.861 241.007,134.194 241.5,136.5C 241.5,159.167 241.5,181.833 241.5,204.5C 238.167,204.5 234.833,204.5 231.5,204.5C 226.869,200.37 222.369,196.037 218,191.5C 217.333,178.5 217.333,165.5 218,152.5C 223.535,146.391 222.035,143.391 213.5,143.5C 211.876,143.36 210.71,144.027 210,145.5C 209,144.5 208,143.5 207,142.5C 205.989,143.337 204.822,143.67 203.5,143.5C 203.762,144.978 203.429,146.311 202.5,147.5C 200.167,149.833 197.833,152.167 195.5,154.5C 194.311,155.429 192.978,155.762 191.5,155.5C 191.36,157.124 192.027,158.29 193.5,159C 191.406,162.929 188.739,166.429 185.5,169.5C 186.611,163.724 186.611,157.724 185.5,151.5C 186.833,151.5 188.167,151.5 189.5,151.5C 189.5,148.833 189.5,146.167 189.5,143.5C 188.167,143.5 186.833,143.5 185.5,143.5C 185.813,140.753 185.48,138.086 184.5,135.5C 183.548,137.045 183.215,138.712 183.5,140.5C 181.076,140.192 178.743,140.526 176.5,141.5C 179.167,142.5 179.167,143.5 176.5,144.5C 173.557,143.756 170.557,143.256 167.5,143C 170.146,142.503 172.813,142.336 175.5,142.5C 175.5,141.5 175.5,140.5 175.5,139.5C 172.753,139.813 170.086,139.48 167.5,138.5C 172.134,137.504 176.8,136.671 181.5,136C 177.848,135.501 174.182,135.335 170.5,135.5C 169.5,132.833 168.5,130.167 167.5,127.5C 173.109,127.214 178.443,125.881 183.5,123.5C 183.291,122.914 182.957,122.414 182.5,122C 185.362,121.76 187.695,120.593 189.5,118.5C 190.167,118.833 190.833,119.167 191.5,119.5C 192.696,119.154 192.696,118.654 191.5,118C 194.167,117.333 196.833,117.333 199.5,118C 201.188,121.015 203.855,122.182 207.5,121.5C 212.82,120.901 218.153,120.568 223.5,120.5 Z"/></g>
<g><path style="opacity:0.435" fill="#85b7cd" d="M 161.5,108.5 C 182.166,111.777 202.833,114.944 223.5,118C 227.679,118.834 231.679,120.168 235.5,122C 237.464,123.451 238.797,125.284 239.5,127.5C 235.398,122.462 230.065,120.129 223.5,120.5C 210.327,118.307 196.994,116.14 183.5,114C 175.935,112.474 168.602,110.64 161.5,108.5 Z"/></g>
<g><path style="opacity:0.974" fill="#a3d3e4" d="M 303.5,115.5 C 301.708,116.309 299.708,116.809 297.5,117C 296.833,117.667 296.167,118.333 295.5,119C 281.029,120.103 266.696,122.103 252.5,125C 251.307,126.095 249.973,126.928 248.5,127.5C 248.937,125.926 249.937,124.759 251.5,124C 256.011,122.164 260.677,120.83 265.5,120C 278.156,118.335 290.823,116.835 303.5,115.5 Z"/></g>
<g><path style="opacity:1" fill="#9bcfe2" d="M 371.5,115.5 C 372.734,119.628 374.234,123.628 376,127.5C 376.832,215.001 376.666,302.334 375.5,389.5C 375.667,306.166 375.5,222.833 375,139.5C 374.752,134.437 374.085,129.437 373,124.5C 371.614,121.466 369.781,118.8 367.5,116.5C 366.571,115.311 366.238,113.978 366.5,112.5C 362.149,111.107 357.649,110.44 353,110.5C 345.846,111.142 338.679,111.475 331.5,111.5C 339.094,109.578 346.927,108.245 355,107.5C 361.672,107.988 367.172,110.655 371.5,115.5 Z"/></g>
<g><path style="opacity:0.004" fill="#fefffe" d="M 425.5,126.5 C 426.833,127.167 426.833,127.167 425.5,126.5 Z"/></g>
<g><path style="opacity:0.251" fill="#86c1db" d="M 105.5,116.5 C 105.5,117.833 105.5,119.167 105.5,120.5C 104.521,123.625 104.187,126.958 104.5,130.5C 99.4376,130.274 94.4376,130.608 89.5,131.5C 89.6107,130.883 89.944,130.383 90.5,130C 94.8206,129.501 99.1539,129.334 103.5,129.5C 103.335,126.15 103.502,122.817 104,119.5C 104.232,118.263 104.732,117.263 105.5,116.5 Z"/></g>
<g><path style="opacity:0.443" fill="#8ad4ef" d="M 89.5,131.5 C 87.8333,133.5 86.1667,135.5 84.5,137.5C 83.1667,138.5 81.8333,139.5 80.5,140.5C 82.5,136.5 85.5,133.5 89.5,131.5 Z"/></g>
<g><path style="opacity:1" fill="#0496d7" d="M 87.5,377.5 C 83.312,375.975 80.9787,372.975 80.5,368.5C 80.3333,295.499 80.5,222.499 81,149.5C 81.9025,148.299 83.0692,147.465 84.5,147C 85.5098,144.179 85.5098,141.012 84.5,137.5C 86.1703,137.249 87.6703,136.582 89,135.5C 89.3333,135.833 89.6667,136.167 90,136.5C 90.49,135.207 90.6567,133.873 90.5,132.5C 93.5176,132.296 96.5176,131.963 99.5,131.5C 99.6168,133.484 98.9501,135.15 97.5,136.5C 98.3202,138.111 99.6536,138.778 101.5,138.5C 101.762,139.978 101.429,141.311 100.5,142.5C 98.802,141.319 97.1353,141.319 95.5,142.5C 97.4239,144.009 98.5906,146.009 99,148.5C 99.8966,144.586 100.397,144.752 100.5,149C 99.9209,151.194 99.2542,153.36 98.5,155.5C 98.477,157.067 98.977,158.4 100,159.5C 100.167,165 100.333,170.5 100.5,176C 99.9213,206.384 99.9213,236.718 100.5,267C 100.333,269.167 100.167,271.333 100,273.5C 99.6667,273.167 99.3333,272.833 99,272.5C 98.3551,273.646 97.5217,274.646 96.5,275.5C 97.7349,277.415 99.0682,278.415 100.5,278.5C 99.2504,281.807 98.5838,285.307 98.5,289C 98.6667,292.167 98.8333,295.333 99,298.5C 100.018,297.294 100.518,297.627 100.5,299.5C 100.148,300.786 99.4818,301.619 98.5,302C 99.0223,302.95 99.689,303.784 100.5,304.5C 99.5585,304.489 98.8919,304.989 98.5,306C 99.4818,306.381 100.148,307.214 100.5,308.5C 99.2365,315.728 98.5699,323.061 98.5,330.5C 98.6335,339.841 98.9669,349.175 99.5,358.5C 99.4096,363.457 98.9096,368.124 98,372.5C 96.0358,370.568 93.8692,368.901 91.5,367.5C 90.0256,368.436 89.0256,369.77 88.5,371.5C 92.5537,372.851 96.2204,374.851 99.5,377.5C 98.5617,378.553 97.395,379.22 96,379.5C 93.4534,377.823 90.6201,377.156 87.5,377.5 Z"/></g>
<g><path style="opacity:1" fill="#81cbe7" d="M 375.5,389.5 C 374.833,392.5 374.167,395.5 373.5,398.5C 372.598,400.341 371.264,401.674 369.5,402.5C 367.156,401.328 364.823,401.328 362.5,402.5C 361.167,401.5 359.833,400.5 358.5,399.5C 359.451,394.23 359.785,388.897 359.5,383.5C 351.5,383.5 343.5,383.5 335.5,383.5C 335.334,377.824 335.501,372.157 336,366.5C 341.072,367.471 346.238,367.805 351.5,367.5C 351.5,364.833 351.5,362.167 351.5,359.5C 340.833,359.167 340.833,358.833 351.5,358.5C 351.5,356.167 351.5,353.833 351.5,351.5C 346.489,351.334 341.489,351.501 336.5,352C 335.565,354.381 335.232,356.881 335.5,359.5C 330.833,360.167 328.167,362.833 327.5,367.5C 324.833,367.5 322.167,367.5 319.5,367.5C 319.5,364.833 319.5,362.167 319.5,359.5C 324.167,358.833 326.833,356.167 327.5,351.5C 324.833,351.5 322.167,351.5 319.5,351.5C 319.5,349.167 319.5,346.833 319.5,344.5C 320.833,344.5 322.167,344.5 323.5,344.5C 323.5,342.167 323.5,339.833 323.5,337.5C 324.978,337.762 326.311,337.429 327.5,336.5C 329.953,333.759 332.286,330.925 334.5,328C 332.744,327.798 331.078,327.298 329.5,326.5C 329.833,325.833 330.167,325.167 330.5,324.5C 332.49,324.159 334.49,323.826 336.5,323.5C 339.167,324.5 339.167,325.5 336.5,326.5C 335.505,332.128 335.171,337.794 335.5,343.5C 339.524,343.497 343.524,343.164 347.5,342.5C 351.407,343.811 355.407,344.478 359.5,344.5C 359.34,342.801 359.506,341.134 360,339.5C 360.925,340.047 361.758,340.713 362.5,341.5C 363.417,344.758 363.751,348.091 363.5,351.5C 364.833,351.5 366.167,351.5 367.5,351.5C 367.334,356.844 367.501,362.177 368,367.5C 369.167,351.495 369.334,335.495 368.5,319.5C 367.914,319.291 367.414,318.957 367,318.5C 366.5,308.172 366.334,297.839 366.5,287.5C 364.167,287.5 361.833,287.5 359.5,287.5C 359.5,284.5 359.5,281.5 359.5,278.5C 348.833,277.833 348.833,277.167 359.5,276.5C 359.5,274.833 359.5,273.167 359.5,271.5C 356.833,271.5 354.167,271.5 351.5,271.5C 351.5,260.833 351.5,250.167 351.5,239.5C 346.167,239.5 340.833,239.5 335.5,239.5C 335.5,234.167 335.5,228.833 335.5,223.5C 327.651,223.415 319.984,223.749 312.5,224.5C 311.779,222.314 311.113,220.147 310.5,218C 311.815,216.605 311.481,215.605 309.5,215C 310.308,214.692 310.975,214.192 311.5,213.5C 307.619,212.217 303.953,212.717 300.5,215C 302.5,215.333 304.5,215.667 306.5,216C 305.552,216.483 304.552,216.649 303.5,216.5C 303.5,217.5 303.5,218.5 303.5,219.5C 307.278,220.193 307.278,221.36 303.5,223C 309.476,223.202 309.81,224.202 304.5,226C 306.962,227.216 309.629,227.882 312.5,228C 309.998,230.212 306.998,231.045 303.5,230.5C 303.5,233.5 303.5,236.5 303.5,239.5C 311.483,238.834 319.483,238.501 327.5,238.5C 329,245.33 326.333,248.33 319.5,247.5C 319.692,250.809 318.359,253.309 315.5,255C 319.486,255.499 323.486,255.666 327.5,255.5C 327.5,254.167 327.5,252.833 327.5,251.5C 330.167,251.5 332.833,251.5 335.5,251.5C 335.5,252.833 335.5,254.167 335.5,255.5C 334.167,255.5 332.833,255.5 331.5,255.5C 331.5,258.167 331.5,260.833 331.5,263.5C 332.833,263.5 334.167,263.5 335.5,263.5C 336.012,270.347 333.346,275.68 327.5,279.5C 323.562,277.237 319.562,277.07 315.5,279C 316.793,279.49 318.127,279.657 319.5,279.5C 319.5,280.5 319.5,281.5 319.5,282.5C 313.996,282.932 308.663,282.265 303.5,280.5C 306.086,279.52 308.753,279.187 311.5,279.5C 311.5,277.833 311.5,276.167 311.5,274.5C 319.296,274.595 319.296,273.762 311.5,272C 304.842,271.5 298.175,271.334 291.5,271.5C 291.5,268.833 291.5,266.167 291.5,263.5C 287.486,263.666 283.486,263.499 279.5,263C 290.146,262.171 290.146,261.671 279.5,261.5C 279.5,260.5 279.5,259.5 279.5,258.5C 290.147,257.991 290.147,257.158 279.5,256C 282.146,255.503 284.813,255.336 287.5,255.5C 287.5,254.5 287.5,253.5 287.5,252.5C 284.833,252.5 282.167,252.5 279.5,252.5C 279.5,251.5 279.5,250.5 279.5,249.5C 276.753,249.813 274.086,249.48 271.5,248.5C 276.682,247.224 276.682,246.557 271.5,246.5C 271.5,245.5 271.5,244.5 271.5,243.5C 277.196,242.899 277.529,241.899 272.5,240.5C 271.516,237.572 271.183,234.572 271.5,231.5C 274.187,231.664 276.854,231.497 279.5,231C 274.344,229.283 269.01,228.116 263.5,227.5C 263.5,226.167 263.5,224.833 263.5,223.5C 260.833,223.5 258.167,223.5 255.5,223.5C 255.5,228.833 255.5,234.167 255.5,239.5C 258.167,239.5 260.833,239.5 263.5,239.5C 263.5,244.833 263.5,250.167 263.5,255.5C 260.833,255.5 258.167,255.5 255.5,255.5C 255.833,276.844 255.5,298.177 254.5,319.5C 253.501,305.182 253.167,290.849 253.5,276.5C 252.022,276.238 250.689,276.571 249.5,277.5C 249.124,295.026 249.791,312.693 251.5,330.5C 251.333,334.167 251.167,337.833 251,341.5C 250.308,342.025 249.808,342.692 249.5,343.5C 254.104,344.016 258.771,344.016 263.5,343.5C 263.5,351.5 263.5,359.5 263.5,367.5C 260.833,367.5 258.167,367.5 255.5,367.5C 255.657,366.127 255.49,364.793 255,363.5C 254.654,365.218 254.154,366.885 253.5,368.5C 253.848,373.326 253.848,377.993 253.5,382.5C 252.022,382.762 250.689,382.429 249.5,381.5C 250.775,377.078 250.442,372.745 248.5,368.5C 247.112,370.109 246.112,371.942 245.5,374C 247.139,377.302 247.806,380.802 247.5,384.5C 246.833,384.5 246.167,384.5 245.5,384.5C 244.728,383.306 243.728,382.306 242.5,381.5C 242.831,354.661 242.498,327.995 241.5,301.5C 241.5,300.833 241.5,300.167 241.5,299.5C 241.5,298.167 241.5,296.833 241.5,295.5C 241.5,294.833 241.5,294.167 241.5,293.5C 242.833,291.833 242.833,290.167 241.5,288.5C 241.5,288.167 241.5,287.833 241.5,287.5C 241.5,286.167 241.5,284.833 241.5,283.5C 240.833,282.833 240.167,282.167 239.5,281.5C 241.256,280.448 241.923,278.781 241.5,276.5C 241.5,276.167 241.5,275.833 241.5,275.5C 241.5,273.833 241.5,272.167 241.5,270.5C 241.5,269.833 241.5,269.167 241.5,268.5C 241.5,267.167 241.5,265.833 241.5,264.5C 240.833,263.833 240.167,263.167 239.5,262.5C 241.308,261.082 241.975,259.082 241.5,256.5C 241.5,255.833 241.5,255.167 241.5,254.5C 241.5,252.833 241.5,251.167 241.5,249.5C 241.5,248.833 241.5,248.167 241.5,247.5C 241.5,245.5 241.5,243.5 241.5,241.5C 241.167,240.833 240.833,240.167 240.5,239.5C 241.451,238.081 241.784,236.415 241.5,234.5C 241.5,233.833 241.5,233.167 241.5,232.5C 241.5,230.833 241.5,229.167 241.5,227.5C 241.5,226.833 241.5,226.167 241.5,225.5C 241.5,223.5 241.5,221.5 241.5,219.5C 241.5,218.833 241.5,218.167 241.5,217.5C 241.5,215.833 241.5,214.167 241.5,212.5C 241.5,211.833 241.5,211.167 241.5,210.5C 241.5,209.167 241.5,207.833 241.5,206.5C 241.5,206.167 241.5,205.833 241.5,205.5C 242.833,182.5 242.833,159.5 241.5,136.5C 241.007,134.194 240.674,131.861 240.5,129.5C 241.6,131.277 242.434,133.277 243,135.5C 243.672,131.88 245.506,129.214 248.5,127.5C 249.973,126.928 251.307,126.095 252.5,125C 266.696,122.103 281.029,120.103 295.5,119C 296.167,118.333 296.833,117.667 297.5,117C 299.708,116.809 301.708,116.309 303.5,115.5C 312.607,113.521 321.94,112.188 331.5,111.5C 338.679,111.475 345.846,111.142 353,110.5C 357.649,110.44 362.149,111.107 366.5,112.5C 366.238,113.978 366.571,115.311 367.5,116.5C 369.781,118.8 371.614,121.466 373,124.5C 374.085,129.437 374.752,134.437 375,139.5C 375.5,222.833 375.667,306.166 375.5,389.5 Z"/></g>
<g><path style="opacity:0.376" fill="#8fb9cd" d="M 403.5,137.5 C 399.647,132.74 394.647,130.407 388.5,130.5C 386.167,130.5 383.833,130.5 381.5,130.5C 381.5,182.5 381.5,234.5 381.5,286.5C 380.502,262.672 380.169,238.672 380.5,214.5C 380.174,186.3 380.174,157.967 380.5,129.5C 385.845,128.284 391.178,128.451 396.5,130C 399.739,131.736 402.073,134.236 403.5,137.5 Z"/></g>
<g><path style="opacity:0.004" fill="#fefffe" d="M 454.5,142.5 C 455.833,143.167 455.833,143.167 454.5,142.5 Z"/></g>
<g><path style="opacity:0.359" fill="#badeea" d="M 371.5,115.5 C 374.294,117.819 376.128,120.819 377,124.5C 377.667,213.833 377.667,303.167 377,392.5C 376.059,394.727 374.892,396.727 373.5,398.5C 374.167,395.5 374.833,392.5 375.5,389.5C 376.666,302.334 376.832,215.001 376,127.5C 374.234,123.628 372.734,119.628 371.5,115.5 Z"/></g>
<g><path style="opacity:1" fill="#4ca3c8" d="M 241.5,136.5 C 242.833,159.5 242.833,182.5 241.5,205.5C 237.958,205.813 234.625,205.479 231.5,204.5C 234.833,204.5 238.167,204.5 241.5,204.5C 241.5,181.833 241.5,159.167 241.5,136.5 Z"/></g>
<g><path style="opacity:0.004" fill="#fefffe" d="M 450.5,168.5 C 451.833,169.167 451.833,169.167 450.5,168.5 Z"/></g>
<g><path style="opacity:1" fill="#0d6f9b" d="M 388.5,130.5 C 394.647,130.407 399.647,132.74 403.5,137.5C 404.745,140.009 405.745,142.675 406.5,145.5C 407.667,220.164 407.833,294.831 407,369.5C 405.681,371.287 404.848,373.287 404.5,375.5C 402.983,375.511 401.816,376.177 401,377.5C 399.187,376.391 398.354,377.058 398.5,379.5C 397.205,380.689 395.205,381.522 392.5,382C 389.183,382.498 385.85,382.665 382.5,382.5C 382.5,298.833 382.5,215.167 382.5,131.5C 384.735,131.795 386.735,131.461 388.5,130.5 Z"/></g>
<g><path style="opacity:1" fill="#3dbadd" d="M 241.5,210.5 C 241.5,211.167 241.5,211.833 241.5,212.5C 235.794,212.829 230.128,212.495 224.5,211.5C 219.488,205.988 214.321,200.655 209,195.5C 208.168,187.479 208.335,179.479 209.5,171.5C 210.058,179.915 210.892,188.248 212,196.5C 216.506,201.339 221.339,205.839 226.5,210C 231.489,210.499 236.489,210.666 241.5,210.5 Z"/></g>
<g><path style="opacity:0.004" fill="#fefffe" d="M 421.5,181.5 C 422.833,182.167 422.833,182.167 421.5,181.5 Z"/></g>
<g><path style="opacity:0.004" fill="#fefffe" d="M 42.5,193.5 C 43.8333,194.167 43.8333,194.167 42.5,193.5 Z"/></g>
<g><path style="opacity:1" fill="#3dbfe1" d="M 213.5,143.5 C 222.035,143.391 223.535,146.391 218,152.5C 217.333,165.5 217.333,178.5 218,191.5C 222.369,196.037 226.869,200.37 231.5,204.5C 234.625,205.479 237.958,205.813 241.5,205.5C 241.5,205.833 241.5,206.167 241.5,206.5C 237.486,206.666 233.486,206.499 229.5,206C 225,201.5 220.5,197 216,192.5C 215.833,179.154 215.333,165.821 214.5,152.5C 210.912,149.888 210.579,146.888 213.5,143.5 Z"/></g>
<g><path style="opacity:1" fill="#087ea1" d="M 214.5,145.5 C 215.833,145.5 217.167,145.5 218.5,145.5C 218.99,147.948 218.157,149.615 216,150.5C 213.389,149.5 212.889,147.833 214.5,145.5 Z"/></g>
<g><path style="opacity:1" fill="#36b2d6" d="M 241.5,225.5 C 241.5,226.167 241.5,226.833 241.5,227.5C 229.495,227.667 217.495,227.5 205.5,227C 196.167,217.667 186.833,208.333 177.5,199C 171.319,198.181 165.319,198.347 159.5,199.5C 152.515,204.392 149.681,202.392 151,193.5C 155.31,190.436 158.144,191.436 159.5,196.5C 165.842,196.334 172.175,196.5 178.5,197C 187.833,206.333 197.167,215.667 206.5,225C 218.162,225.5 229.829,225.667 241.5,225.5 Z"/></g>
<g><path style="opacity:1" fill="#3bbbdf" d="M 241.5,217.5 C 241.5,218.167 241.5,218.833 241.5,219.5C 234.825,219.666 228.158,219.5 221.5,219C 215.682,212.681 209.682,206.514 203.5,200.5C 202.833,190.167 202.167,179.833 201.5,169.5C 198.743,167.912 197.91,165.579 199,162.5C 203.197,159.406 206.364,160.24 208.5,165C 208.505,167.163 207.505,168.663 205.5,169.5C 204.334,179.483 204.168,189.483 205,199.5C 210.812,205.643 216.978,211.477 223.5,217C 229.491,217.499 235.491,217.666 241.5,217.5 Z"/></g>
<g><path style="opacity:0.004" fill="#fefffe" d="M 466.5,202.5 C 467.833,203.167 467.833,203.167 466.5,202.5 Z"/></g>
<g><path style="opacity:1" fill="#7fcae8" d="M 369.5,402.5 C 368.738,404.262 367.404,405.262 365.5,405.5C 356.856,406.551 348.19,406.551 339.5,405.5C 327.249,404.677 315.249,403.01 303.5,400.5C 290.192,398.527 276.859,396.027 263.5,393C 260.263,391.548 256.93,390.381 253.5,389.5C 251.773,387.433 249.773,385.767 247.5,384.5C 247.806,380.802 247.139,377.302 245.5,374C 246.112,371.942 247.112,370.109 248.5,368.5C 250.442,372.745 250.775,377.078 249.5,381.5C 250.689,382.429 252.022,382.762 253.5,382.5C 253.848,377.993 253.848,373.326 253.5,368.5C 254.154,366.885 254.654,365.218 255,363.5C 255.49,364.793 255.657,366.127 255.5,367.5C 258.167,367.5 260.833,367.5 263.5,367.5C 263.5,359.5 263.5,351.5 263.5,343.5C 258.771,344.016 254.104,344.016 249.5,343.5C 249.808,342.692 250.308,342.025 251,341.5C 251.167,337.833 251.333,334.167 251.5,330.5C 249.791,312.693 249.124,295.026 249.5,277.5C 250.689,276.571 252.022,276.238 253.5,276.5C 253.167,290.849 253.501,305.182 254.5,319.5C 255.5,298.177 255.833,276.844 255.5,255.5C 258.167,255.5 260.833,255.5 263.5,255.5C 263.5,250.167 263.5,244.833 263.5,239.5C 260.833,239.5 258.167,239.5 255.5,239.5C 255.5,234.167 255.5,228.833 255.5,223.5C 258.167,223.5 260.833,223.5 263.5,223.5C 263.5,224.833 263.5,226.167 263.5,227.5C 269.01,228.116 274.344,229.283 279.5,231C 276.854,231.497 274.187,231.664 271.5,231.5C 271.183,234.572 271.516,237.572 272.5,240.5C 277.529,241.899 277.196,242.899 271.5,243.5C 271.5,244.5 271.5,245.5 271.5,246.5C 276.682,246.557 276.682,247.224 271.5,248.5C 274.086,249.48 276.753,249.813 279.5,249.5C 279.5,250.5 279.5,251.5 279.5,252.5C 282.167,252.5 284.833,252.5 287.5,252.5C 287.5,253.5 287.5,254.5 287.5,255.5C 284.813,255.336 282.146,255.503 279.5,256C 290.147,257.158 290.147,257.991 279.5,258.5C 279.5,259.5 279.5,260.5 279.5,261.5C 290.146,261.671 290.146,262.171 279.5,263C 283.486,263.499 287.486,263.666 291.5,263.5C 291.5,266.167 291.5,268.833 291.5,271.5C 298.175,271.334 304.842,271.5 311.5,272C 319.296,273.762 319.296,274.595 311.5,274.5C 311.5,276.167 311.5,277.833 311.5,279.5C 308.753,279.187 306.086,279.52 303.5,280.5C 308.663,282.265 313.996,282.932 319.5,282.5C 319.5,281.5 319.5,280.5 319.5,279.5C 318.127,279.657 316.793,279.49 315.5,279C 319.562,277.07 323.562,277.237 327.5,279.5C 333.346,275.68 336.012,270.347 335.5,263.5C 334.167,263.5 332.833,263.5 331.5,263.5C 331.5,260.833 331.5,258.167 331.5,255.5C 332.833,255.5 334.167,255.5 335.5,255.5C 335.5,254.167 335.5,252.833 335.5,251.5C 332.833,251.5 330.167,251.5 327.5,251.5C 327.5,252.833 327.5,254.167 327.5,255.5C 323.486,255.666 319.486,255.499 315.5,255C 318.359,253.309 319.692,250.809 319.5,247.5C 326.333,248.33 329,245.33 327.5,238.5C 319.483,238.501 311.483,238.834 303.5,239.5C 303.5,236.5 303.5,233.5 303.5,230.5C 306.998,231.045 309.998,230.212 312.5,228C 309.629,227.882 306.962,227.216 304.5,226C 309.81,224.202 309.476,223.202 303.5,223C 307.278,221.36 307.278,220.193 303.5,219.5C 303.5,218.5 303.5,217.5 303.5,216.5C 304.552,216.649 305.552,216.483 306.5,216C 304.5,215.667 302.5,215.333 300.5,215C 303.953,212.717 307.619,212.217 311.5,213.5C 310.975,214.192 310.308,214.692 309.5,215C 311.481,215.605 311.815,216.605 310.5,218C 311.113,220.147 311.779,222.314 312.5,224.5C 319.984,223.749 327.651,223.415 335.5,223.5C 335.5,228.833 335.5,234.167 335.5,239.5C 340.833,239.5 346.167,239.5 351.5,239.5C 351.5,250.167 351.5,260.833 351.5,271.5C 354.167,271.5 356.833,271.5 359.5,271.5C 359.5,273.167 359.5,274.833 359.5,276.5C 348.833,277.167 348.833,277.833 359.5,278.5C 359.5,281.5 359.5,284.5 359.5,287.5C 361.833,287.5 364.167,287.5 366.5,287.5C 366.334,297.839 366.5,308.172 367,318.5C 367.414,318.957 367.914,319.291 368.5,319.5C 369.334,335.495 369.167,351.495 368,367.5C 367.501,362.177 367.334,356.844 367.5,351.5C 366.167,351.5 364.833,351.5 363.5,351.5C 363.751,348.091 363.417,344.758 362.5,341.5C 361.758,340.713 360.925,340.047 360,339.5C 359.506,341.134 359.34,342.801 359.5,344.5C 355.407,344.478 351.407,343.811 347.5,342.5C 343.524,343.164 339.524,343.497 335.5,343.5C 335.171,337.794 335.505,332.128 336.5,326.5C 339.167,325.5 339.167,324.5 336.5,323.5C 334.49,323.826 332.49,324.159 330.5,324.5C 330.167,325.167 329.833,325.833 329.5,326.5C 331.078,327.298 332.744,327.798 334.5,328C 332.286,330.925 329.953,333.759 327.5,336.5C 326.311,337.429 324.978,337.762 323.5,337.5C 323.5,339.833 323.5,342.167 323.5,344.5C 322.167,344.5 320.833,344.5 319.5,344.5C 319.5,346.833 319.5,349.167 319.5,351.5C 322.167,351.5 324.833,351.5 327.5,351.5C 326.833,356.167 324.167,358.833 319.5,359.5C 319.5,362.167 319.5,364.833 319.5,367.5C 322.167,367.5 324.833,367.5 327.5,367.5C 328.167,362.833 330.833,360.167 335.5,359.5C 335.232,356.881 335.565,354.381 336.5,352C 341.489,351.501 346.489,351.334 351.5,351.5C 351.5,353.833 351.5,356.167 351.5,358.5C 340.833,358.833 340.833,359.167 351.5,359.5C 351.5,362.167 351.5,364.833 351.5,367.5C 346.238,367.805 341.072,367.471 336,366.5C 335.501,372.157 335.334,377.824 335.5,383.5C 343.5,383.5 351.5,383.5 359.5,383.5C 359.785,388.897 359.451,394.23 358.5,399.5C 359.833,400.5 361.167,401.5 362.5,402.5C 364.823,401.328 367.156,401.328 369.5,402.5 Z"/></g>
<g><path style="opacity:1" fill="#3bbbdd" d="M 170.5,204.5 C 173.765,204.918 176.765,206.085 179.5,208C 186.832,216.165 194.498,223.998 202.5,231.5C 215.483,232.499 228.483,232.832 241.5,232.5C 241.5,233.167 241.5,233.833 241.5,234.5C 228.163,234.667 214.829,234.5 201.5,234C 194.149,226.249 186.815,218.583 179.5,211C 177.393,210.146 176.059,210.812 175.5,213C 183.484,221.985 191.818,230.651 200.5,239C 213.829,239.5 227.163,239.667 240.5,239.5C 240.833,240.167 241.167,240.833 241.5,241.5C 227.496,241.667 213.496,241.5 199.5,241C 191.087,231.59 182.42,222.59 173.5,214C 169.749,214.083 167.749,212.249 167.5,208.5C 167.754,206.583 168.754,205.249 170.5,204.5 Z"/></g>
<g><path style="opacity:1" fill="#1998cf" d="M 84.5,137.5 C 85.5098,141.012 85.5098,144.179 84.5,147C 83.0692,147.465 81.9025,148.299 81,149.5C 80.5,222.499 80.3333,295.499 80.5,368.5C 79.1773,292.646 79.1773,216.646 80.5,140.5C 81.8333,139.5 83.1667,138.5 84.5,137.5 Z"/></g>
<g><path style="opacity:0.004" fill="#fefffe" d="M 43.5,224.5 C 44.8333,225.167 44.8333,225.167 43.5,224.5 Z"/></g>
<g><path style="opacity:1" fill="#0b79a2" d="M 159.5,199.5 C 165.319,198.347 171.319,198.181 177.5,199C 186.833,208.333 196.167,217.667 205.5,227C 217.495,227.5 229.495,227.667 241.5,227.5C 241.5,229.167 241.5,230.833 241.5,232.5C 228.483,232.832 215.483,232.499 202.5,231.5C 194.498,223.998 186.832,216.165 179.5,208C 176.765,206.085 173.765,204.918 170.5,204.5C 171.785,201.685 173.785,200.852 176.5,202C 175.833,201.333 175.167,200.667 174.5,200C 169.511,199.501 164.511,199.334 159.5,199.5 Z"/></g>
<g><path style="opacity:1" fill="#3ab8db" d="M 241.5,247.5 C 241.5,248.167 241.5,248.833 241.5,249.5C 223.83,249.667 206.164,249.5 188.5,249C 179.833,240.333 171.167,231.667 162.5,223C 153.833,222.333 145.167,222.333 136.5,223C 129.834,227.347 127.001,225.514 128,217.5C 131.082,214.803 133.915,215.136 136.5,218.5C 145.5,219.167 154.5,219.833 163.5,220.5C 171.986,229.486 180.652,238.319 189.5,247C 206.83,247.5 224.163,247.667 241.5,247.5 Z"/></g>
<g><path style="opacity:0.813" fill="#56b3d9" d="M 80.5,140.5 C 79.1773,216.646 79.1773,292.646 80.5,368.5C 80.9787,372.975 83.312,375.975 87.5,377.5C 87.5569,378.609 87.8902,379.609 88.5,380.5C 81.9426,377.616 78.6093,372.616 78.5,365.5C 78.8326,292.331 78.4992,219.331 77.5,146.5C 78.1302,144.25 79.1302,142.25 80.5,140.5 Z"/></g>
<g><path style="opacity:1" fill="#0b78a0" d="M 241.5,234.5 C 241.784,236.415 241.451,238.081 240.5,239.5C 227.163,239.667 213.829,239.5 200.5,239C 191.818,230.651 183.484,221.985 175.5,213C 176.059,210.812 177.393,210.146 179.5,211C 186.815,218.583 194.149,226.249 201.5,234C 214.829,234.5 228.163,234.667 241.5,234.5 Z"/></g>
<g><path style="opacity:1" fill="#3ebbdf" d="M 241.5,254.5 C 241.5,255.167 241.5,255.833 241.5,256.5C 221.833,256.5 202.167,256.5 182.5,256.5C 174.339,248.171 166.339,239.671 158.5,231C 144.833,230.333 131.167,230.333 117.5,231C 113.235,236.051 109.901,235.551 107.5,229.5C 107.971,226.698 109.638,225.364 112.5,225.5C 114.319,225.342 115.652,226.009 116.5,227.5C 130.833,228.167 145.167,228.833 159.5,229.5C 167.319,237.819 175.319,245.986 183.5,254C 202.83,254.5 222.164,254.667 241.5,254.5 Z"/></g>
<g><path style="opacity:1" fill="#0e729e" d="M 159.5,108.5 C 160.167,108.5 160.833,108.5 161.5,108.5C 168.602,110.64 175.935,112.474 183.5,114C 196.994,116.14 210.327,118.307 223.5,120.5C 218.153,120.568 212.82,120.901 207.5,121.5C 203.855,122.182 201.188,121.015 199.5,118C 196.833,117.333 194.167,117.333 191.5,118C 192.696,118.654 192.696,119.154 191.5,119.5C 190.833,119.167 190.167,118.833 189.5,118.5C 187.695,120.593 185.362,121.76 182.5,122C 182.957,122.414 183.291,122.914 183.5,123.5C 178.443,125.881 173.109,127.214 167.5,127.5C 168.5,130.167 169.5,132.833 170.5,135.5C 174.182,135.335 177.848,135.501 181.5,136C 176.8,136.671 172.134,137.504 167.5,138.5C 170.086,139.48 172.753,139.813 175.5,139.5C 175.5,140.5 175.5,141.5 175.5,142.5C 172.813,142.336 170.146,142.503 167.5,143C 170.557,143.256 173.557,143.756 176.5,144.5C 179.167,143.5 179.167,142.5 176.5,141.5C 178.743,140.526 181.076,140.192 183.5,140.5C 183.215,138.712 183.548,137.045 184.5,135.5C 185.48,138.086 185.813,140.753 185.5,143.5C 186.833,143.5 188.167,143.5 189.5,143.5C 189.5,146.167 189.5,148.833 189.5,151.5C 188.167,151.5 186.833,151.5 185.5,151.5C 186.611,157.724 186.611,163.724 185.5,169.5C 188.739,166.429 191.406,162.929 193.5,159C 192.027,158.29 191.36,157.124 191.5,155.5C 192.978,155.762 194.311,155.429 195.5,154.5C 197.833,152.167 200.167,149.833 202.5,147.5C 203.429,146.311 203.762,144.978 203.5,143.5C 204.822,143.67 205.989,143.337 207,142.5C 208,143.5 209,144.5 210,145.5C 210.71,144.027 211.876,143.36 213.5,143.5C 210.579,146.888 210.912,149.888 214.5,152.5C 215.333,165.821 215.833,179.154 216,192.5C 220.5,197 225,201.5 229.5,206C 233.486,206.499 237.486,206.666 241.5,206.5C 241.5,207.833 241.5,209.167 241.5,210.5C 236.489,210.666 231.489,210.499 226.5,210C 221.339,205.839 216.506,201.339 212,196.5C 210.892,188.248 210.058,179.915 209.5,171.5C 208.335,179.479 208.168,187.479 209,195.5C 214.321,200.655 219.488,205.988 224.5,211.5C 230.128,212.495 235.794,212.829 241.5,212.5C 241.5,214.167 241.5,215.833 241.5,217.5C 235.491,217.666 229.491,217.499 223.5,217C 216.978,211.477 210.812,205.643 205,199.5C 204.168,189.483 204.334,179.483 205.5,169.5C 207.505,168.663 208.505,167.163 208.5,165C 206.364,160.24 203.197,159.406 199,162.5C 197.91,165.579 198.743,167.912 201.5,169.5C 202.167,179.833 202.833,190.167 203.5,200.5C 209.682,206.514 215.682,212.681 221.5,219C 228.158,219.5 234.825,219.666 241.5,219.5C 241.5,221.5 241.5,223.5 241.5,225.5C 229.829,225.667 218.162,225.5 206.5,225C 197.167,215.667 187.833,206.333 178.5,197C 172.175,196.5 165.842,196.334 159.5,196.5C 158.144,191.436 155.31,190.436 151,193.5C 149.681,202.392 152.515,204.392 159.5,199.5C 164.511,199.334 169.511,199.501 174.5,200C 175.167,200.667 175.833,201.333 176.5,202C 173.785,200.852 171.785,201.685 170.5,204.5C 168.754,205.249 167.754,206.583 167.5,208.5C 167.749,212.249 169.749,214.083 173.5,214C 182.42,222.59 191.087,231.59 199.5,241C 213.496,241.5 227.496,241.667 241.5,241.5C 241.5,243.5 241.5,245.5 241.5,247.5C 224.163,247.667 206.83,247.5 189.5,247C 180.652,238.319 171.986,229.486 163.5,220.5C 154.5,219.833 145.5,219.167 136.5,218.5C 133.915,215.136 131.082,214.803 128,217.5C 127.001,225.514 129.834,227.347 136.5,223C 145.167,222.333 153.833,222.333 162.5,223C 171.167,231.667 179.833,240.333 188.5,249C 206.164,249.5 223.83,249.667 241.5,249.5C 241.5,251.167 241.5,252.833 241.5,254.5C 222.164,254.667 202.83,254.5 183.5,254C 175.319,245.986 167.319,237.819 159.5,229.5C 145.167,228.833 130.833,228.167 116.5,227.5C 115.652,226.009 114.319,225.342 112.5,225.5C 109.638,225.364 107.971,226.698 107.5,229.5C 109.901,235.551 113.235,236.051 117.5,231C 131.167,230.333 144.833,230.333 158.5,231C 166.339,239.671 174.339,248.171 182.5,256.5C 201.659,257.497 220.993,257.83 240.5,257.5C 240.5,258.833 240.5,260.167 240.5,261.5C 218.833,261.5 197.167,261.5 175.5,261.5C 169.342,254.842 163.009,248.342 156.5,242C 154.866,241.506 153.199,241.34 151.5,241.5C 150.546,237.689 148.213,236.689 144.5,238.5C 141.762,241.653 142.095,244.486 145.5,247C 149.282,246.679 152.948,246.012 156.5,245C 162.866,251.031 168.866,257.364 174.5,264C 196.831,264.5 219.164,264.667 241.5,264.5C 241.5,265.833 241.5,267.167 241.5,268.5C 219.497,268.333 197.497,268.5 175.5,269C 168.887,275.613 162.221,282.279 155.5,289C 150.367,288.808 145.367,288.142 140.5,287C 137.966,289.587 137.966,292.253 140.5,295C 143.893,296.168 146.559,295.334 148.5,292.5C 151.107,291.682 153.774,291.182 156.5,291C 163.036,284.631 169.369,278.131 175.5,271.5C 197.167,271.5 218.833,271.5 240.5,271.5C 240.5,272.5 240.5,273.5 240.5,274.5C 221.326,274.17 202.326,274.503 183.5,275.5C 174.035,284.464 164.702,293.631 155.5,303C 146.482,303.832 137.482,303.665 128.5,302.5C 126.056,298.979 123.222,298.645 120,301.5C 118.35,306.068 119.85,308.734 124.5,309.5C 126.397,309.272 127.73,308.272 128.5,306.5C 137.816,305.668 147.149,305.168 156.5,305C 165.757,295.911 174.757,286.745 183.5,277.5C 202.5,277.5 221.5,277.5 240.5,277.5C 240.5,278.5 240.5,279.5 240.5,280.5C 222.992,280.17 205.659,280.503 188.5,281.5C 181.171,287.996 174.338,294.996 168,302.5C 167.5,311.494 167.334,320.494 167.5,329.5C 165.381,329.468 164.048,330.468 163.5,332.5C 161.974,333.105 160.974,334.271 160.5,336C 164.811,340.32 170.145,342.487 176.5,342.5C 174.641,344.192 172.641,345.692 170.5,347C 170.811,349.588 171.311,352.421 172,355.5C 172.718,354.549 173.551,354.383 174.5,355C 175.167,356.667 175.833,358.333 176.5,360C 181.488,361.645 184.988,360.145 187,355.5C 188.138,351.141 186.805,347.808 183,345.5C 182.219,344.056 182.386,342.723 183.5,341.5C 185.541,342.236 187.541,343.069 189.5,344C 189.93,344.92 190.264,345.753 190.5,346.5C 191.417,345.873 192.417,345.539 193.5,345.5C 193.338,347.527 193.505,349.527 194,351.5C 195.188,350.437 195.688,349.103 195.5,347.5C 196.833,347.5 198.167,347.5 199.5,347.5C 199.664,350.187 199.497,352.854 199,355.5C 197.667,356.167 196.667,357.167 196,358.5C 195.502,361.482 195.335,364.482 195.5,367.5C 194.167,367.5 192.833,367.5 191.5,367.5C 191.5,368.833 191.5,370.167 191.5,371.5C 186.167,371.5 180.833,371.5 175.5,371.5C 175.5,370.167 175.5,368.833 175.5,367.5C 172.102,367.82 168.768,367.487 165.5,366.5C 170.802,365.671 176.136,365.171 181.5,365C 179.527,364.505 177.527,364.338 175.5,364.5C 175.5,363.5 175.5,362.5 175.5,361.5C 171.698,361.634 168.032,360.967 164.5,359.5C 160.26,361.418 155.927,361.751 151.5,360.5C 153.423,359.692 155.423,359.192 157.5,359C 156.219,356.597 154.386,354.763 152,353.5C 150.732,356.598 148.399,358.265 145,358.5C 139.23,357.3 133.397,356.633 127.5,356.5C 127.5,355.5 127.5,354.5 127.5,353.5C 130.247,353.813 132.914,353.48 135.5,352.5C 130.208,351.505 124.875,351.172 119.5,351.5C 119.5,346.167 119.5,340.833 119.5,335.5C 117.5,335.5 115.5,335.5 113.5,335.5C 113.813,338.247 113.48,340.914 112.5,343.5C 111.851,341.376 111.017,339.376 110,337.5C 109.5,338.667 108.667,339.5 107.5,340C 108.574,340.739 109.241,341.739 109.5,343C 109.034,345.186 108.701,347.352 108.5,349.5C 111.123,355.83 112.456,362.497 112.5,369.5C 110.801,369.34 109.134,369.506 107.5,370C 108.022,370.561 108.355,371.228 108.5,372C 106.951,375.367 105.951,378.867 105.5,382.5C 104.662,382.158 104.328,381.492 104.5,380.5C 104.831,332.261 104.497,284.095 103.5,236C 104.249,234.266 104.749,232.433 105,230.5C 105.5,193.835 105.667,157.168 105.5,120.5C 105.5,119.167 105.5,117.833 105.5,116.5C 109.665,112.503 113.998,108.67 118.5,105C 124.442,103.965 130.108,104.632 135.5,107C 143.505,107.5 151.505,108 159.5,108.5 Z"/></g>
<g><path style="opacity:1" fill="#0782a6" d="M 110.5,227.5 C 111.833,227.5 113.167,227.5 114.5,227.5C 114.5,229.167 114.5,230.833 114.5,232.5C 110.065,233.078 108.732,231.411 110.5,227.5 Z"/></g>
<g><path style="opacity:1" fill="#097fa5" d="M 129.5,218.5 C 133.138,217.737 134.638,219.07 134,222.5C 130.331,224.009 128.831,222.676 129.5,218.5 Z"/></g>
<g><path style="opacity:1" fill="#0780a5" d="M 170.5,206.5 C 171.833,206.5 173.167,206.5 174.5,206.5C 174.99,208.948 174.157,210.615 172,211.5C 169.389,210.5 168.889,208.833 170.5,206.5 Z"/></g>
<g><path style="opacity:1" fill="#3eb8dd" d="M 175.5,159.5 C 182.036,159.373 184.203,162.373 182,168.5C 184.667,171.167 187.333,173.833 190,176.5C 190.333,183.5 190.667,190.5 191,197.5C 195.5,203.333 200.667,208.5 206.5,213C 205.5,213.667 204.5,213.667 203.5,213C 198.667,208.167 193.833,203.333 189,198.5C 188.667,191.5 188.333,184.5 188,177.5C 185.821,175.652 183.987,173.485 182.5,171C 178.866,170.353 175.7,168.853 173,166.5C 171.916,163.341 172.75,161.008 175.5,159.5 Z"/></g>
<g><path style="opacity:1" fill="#0f87ac" d="M 202.5,162.5 C 206.013,163.028 207.013,164.862 205.5,168C 202.763,169.08 201.096,168.246 200.5,165.5C 200.942,164.261 201.609,163.261 202.5,162.5 Z"/></g>
<g><path style="opacity:1" fill="#1394d0" d="M 104.5,130.5 C 104.179,132.048 103.179,132.715 101.5,132.5C 102.005,135.521 102.672,138.521 103.5,141.5C 102.836,219.186 102.17,296.852 101.5,374.5C 103.1,377.802 102.1,379.969 98.5,381C 100.488,381.18 102.488,381.014 104.5,380.5C 104.328,381.492 104.662,382.158 105.5,382.5C 105.5,386.5 105.5,390.5 105.5,394.5C 103.75,390.817 103.083,386.817 103.5,382.5C 98.7838,383.993 94.1171,383.826 89.5,382C 88.944,381.617 88.6107,381.117 88.5,380.5C 87.8902,379.609 87.5569,378.609 87.5,377.5C 90.6201,377.156 93.4534,377.823 96,379.5C 97.395,379.22 98.5617,378.553 99.5,377.5C 96.2204,374.851 92.5537,372.851 88.5,371.5C 89.0256,369.77 90.0256,368.436 91.5,367.5C 93.8692,368.901 96.0358,370.568 98,372.5C 98.9096,368.124 99.4096,363.457 99.5,358.5C 98.9669,349.175 98.6335,339.841 98.5,330.5C 98.5699,323.061 99.2365,315.728 100.5,308.5C 100.148,307.214 99.4818,306.381 98.5,306C 98.8919,304.989 99.5585,304.489 100.5,304.5C 99.689,303.784 99.0223,302.95 98.5,302C 99.4818,301.619 100.148,300.786 100.5,299.5C 100.518,297.627 100.018,297.294 99,298.5C 98.8333,295.333 98.6667,292.167 98.5,289C 98.5838,285.307 99.2504,281.807 100.5,278.5C 99.0682,278.415 97.7349,277.415 96.5,275.5C 97.5217,274.646 98.3551,273.646 99,272.5C 99.3333,272.833 99.6667,273.167 100,273.5C 100.167,271.333 100.333,269.167 100.5,267C 99.9213,236.718 99.9213,206.384 100.5,176C 100.333,170.5 100.167,165 100,159.5C 98.977,158.4 98.477,157.067 98.5,155.5C 99.2542,153.36 99.9209,151.194 100.5,149C 100.397,144.752 99.8966,144.586 99,148.5C 98.5906,146.009 97.4239,144.009 95.5,142.5C 97.1353,141.319 98.802,141.319 100.5,142.5C 101.429,141.311 101.762,139.978 101.5,138.5C 99.6536,138.778 98.3202,138.111 97.5,136.5C 98.9501,135.15 99.6168,133.484 99.5,131.5C 96.5176,131.963 93.5176,132.296 90.5,132.5C 90.6567,133.873 90.49,135.207 90,136.5C 89.6667,136.167 89.3333,135.833 89,135.5C 87.6703,136.582 86.1703,137.249 84.5,137.5C 86.1667,135.5 87.8333,133.5 89.5,131.5C 94.4376,130.608 99.4376,130.274 104.5,130.5 Z"/></g>
<g><path style="opacity:1" fill="#0b88be" d="M 105.5,120.5 C 105.667,157.168 105.5,193.835 105,230.5C 104.749,232.433 104.249,234.266 103.5,236C 104.497,284.095 104.831,332.261 104.5,380.5C 102.488,381.014 100.488,381.18 98.5,381C 102.1,379.969 103.1,377.802 101.5,374.5C 102.17,296.852 102.836,219.186 103.5,141.5C 102.672,138.521 102.005,135.521 101.5,132.5C 103.179,132.715 104.179,132.048 104.5,130.5C 104.187,126.958 104.521,123.625 105.5,120.5 Z"/></g>
<g><path style="opacity:1" fill="#3eb9dd" d="M 175.5,261.5 C 196.66,262.497 217.993,262.831 239.5,262.5C 240.167,263.167 240.833,263.833 241.5,264.5C 219.164,264.667 196.831,264.5 174.5,264C 168.866,257.364 162.866,251.031 156.5,245C 152.948,246.012 149.282,246.679 145.5,247C 142.095,244.486 141.762,241.653 144.5,238.5C 148.213,236.689 150.546,237.689 151.5,241.5C 153.199,241.34 154.866,241.506 156.5,242C 163.009,248.342 169.342,254.842 175.5,261.5 Z"/></g>
<g><path style="opacity:0.004" fill="#fefffe" d="M 429.5,245.5 C 430.833,246.167 430.833,246.167 429.5,245.5 Z"/></g>
<g><path style="opacity:0.004" fill="#fefffe" d="M 423.5,254.5 C 424.833,255.167 424.833,255.167 423.5,254.5 Z"/></g>
<g><path style="opacity:1" fill="#158bb1" d="M 182.5,256.5 C 202.167,256.5 221.833,256.5 241.5,256.5C 241.975,259.082 241.308,261.082 239.5,262.5C 217.993,262.831 196.66,262.497 175.5,261.5C 197.167,261.5 218.833,261.5 240.5,261.5C 240.5,260.167 240.5,258.833 240.5,257.5C 220.993,257.83 201.659,257.497 182.5,256.5 Z"/></g>
<g><path style="opacity:1" fill="#2095ba" d="M 175.5,271.5 C 197.327,270.503 219.327,270.169 241.5,270.5C 241.5,272.167 241.5,273.833 241.5,275.5C 222.167,275.5 202.833,275.5 183.5,275.5C 202.326,274.503 221.326,274.17 240.5,274.5C 240.5,273.5 240.5,272.5 240.5,271.5C 218.833,271.5 197.167,271.5 175.5,271.5 Z"/></g>
<g><path style="opacity:1" fill="#26a0c4" d="M 183.5,277.5 C 202.659,276.503 221.993,276.17 241.5,276.5C 241.923,278.781 241.256,280.448 239.5,281.5C 222.5,281.5 205.5,281.5 188.5,281.5C 205.659,280.503 222.992,280.17 240.5,280.5C 240.5,279.5 240.5,278.5 240.5,277.5C 221.5,277.5 202.5,277.5 183.5,277.5 Z"/></g>
<g><path style="opacity:1" fill="#1f93b8" d="M 240.5,283.5 C 240.833,283.5 241.167,283.5 241.5,283.5C 241.5,284.833 241.5,286.167 241.5,287.5C 227.5,287.5 213.5,287.5 199.5,287.5C 212.99,286.504 226.656,286.171 240.5,286.5C 240.5,285.5 240.5,284.5 240.5,283.5 Z"/></g>
<g><path style="opacity:0.543" fill="#c2e4f6" d="M 380.5,214.5 C 380.169,238.672 380.502,262.672 381.5,286.5C 380.714,300.752 380.38,315.085 380.5,329.5C 379.167,291.167 379.167,252.833 380.5,214.5 Z"/></g>
<g><path style="opacity:0.004" fill="#fefffe" d="M 439.5,286.5 C 440.833,287.167 440.833,287.167 439.5,286.5 Z"/></g>
<g><path style="opacity:1" fill="#3dbcde" d="M 183.5,275.5 C 202.833,275.5 222.167,275.5 241.5,275.5C 241.5,275.833 241.5,276.167 241.5,276.5C 221.993,276.17 202.659,276.503 183.5,277.5C 174.757,286.745 165.757,295.911 156.5,305C 147.149,305.168 137.816,305.668 128.5,306.5C 127.73,308.272 126.397,309.272 124.5,309.5C 119.85,308.734 118.35,306.068 120,301.5C 123.222,298.645 126.056,298.979 128.5,302.5C 137.482,303.665 146.482,303.832 155.5,303C 164.702,293.631 174.035,284.464 183.5,275.5 Z"/></g>
<g><path style="opacity:1" fill="#3ebbde" d="M 241.5,268.5 C 241.5,269.167 241.5,269.833 241.5,270.5C 219.327,270.169 197.327,270.503 175.5,271.5C 169.369,278.131 163.036,284.631 156.5,291C 153.774,291.182 151.107,291.682 148.5,292.5C 146.559,295.334 143.893,296.168 140.5,295C 137.966,292.253 137.966,289.587 140.5,287C 145.367,288.142 150.367,288.808 155.5,289C 162.221,282.279 168.887,275.613 175.5,269C 197.497,268.5 219.497,268.333 241.5,268.5 Z"/></g>
<g><path style="opacity:1" fill="#0781a5" d="M 142.5,287.5 C 145.966,288.109 146.966,289.942 145.5,293C 144.207,293.49 142.873,293.657 141.5,293.5C 141.325,291.379 141.659,289.379 142.5,287.5 Z"/></g>
<g><path style="opacity:1" fill="#3abadd" d="M 188.5,281.5 C 205.5,281.5 222.5,281.5 239.5,281.5C 240.167,282.167 240.833,282.833 241.5,283.5C 241.167,283.5 240.833,283.5 240.5,283.5C 223.163,283.333 205.83,283.5 188.5,284C 182.333,290.167 176.167,296.333 170,302.5C 169.333,311.5 169.333,320.5 170,329.5C 172.614,331.739 173.114,334.405 171.5,337.5C 166.215,339.857 163.548,338.191 163.5,332.5C 164.048,330.468 165.381,329.468 167.5,329.5C 167.334,320.494 167.5,311.494 168,302.5C 174.338,294.996 181.171,287.996 188.5,281.5 Z"/></g>
<g><path style="opacity:1" fill="#1f95ba" d="M 200.5,289.5 C 213.99,288.504 227.656,288.171 241.5,288.5C 242.833,290.167 242.833,291.833 241.5,293.5C 229.833,293.5 218.167,293.5 206.5,293.5C 217.988,292.505 229.655,292.172 241.5,292.5C 241.5,291.5 241.5,290.5 241.5,289.5C 227.833,289.5 214.167,289.5 200.5,289.5 Z"/></g>
<g><path style="opacity:1" fill="#38b4d7" d="M 199.5,287.5 C 213.5,287.5 227.5,287.5 241.5,287.5C 241.5,287.833 241.5,288.167 241.5,288.5C 227.656,288.171 213.99,288.504 200.5,289.5C 194.468,296.146 187.968,302.48 181,308.5C 180.333,321.167 180.333,333.833 181,346.5C 183.368,348.684 184.035,351.351 183,354.5C 176.818,357.553 174.151,355.553 175,348.5C 175.667,347.833 176.333,347.167 177,346.5C 177.167,333.82 177.667,321.154 178.5,308.5C 185.936,301.731 192.936,294.731 199.5,287.5 Z"/></g>
<g><path style="opacity:0.004" fill="#fefffe" d="M 418.5,299.5 C 419.833,300.167 419.833,300.167 418.5,299.5 Z"/></g>
<g><path style="opacity:1" fill="#39b7da" d="M 206.5,293.5 C 218.167,293.5 229.833,293.5 241.5,293.5C 241.5,294.167 241.5,294.833 241.5,295.5C 230.162,295.333 218.828,295.5 207.5,296C 202.333,301.167 197.167,306.333 192,311.5C 191.333,318.5 191.333,325.5 192,332.5C 194.27,334.315 194.936,336.648 194,339.5C 187.479,342.995 184.813,340.995 186,333.5C 187.011,332.663 188.178,332.33 189.5,332.5C 189.334,325.159 189.5,317.826 190,310.5C 195.675,304.991 201.175,299.325 206.5,293.5 Z"/></g>
<g><path style="opacity:1" fill="#0c6f9c" d="M 241.5,301.5 C 241.5,327.167 241.5,352.833 241.5,378.5C 240.883,378.611 240.383,378.944 240,379.5C 239.505,381.473 239.338,383.473 239.5,385.5C 238.167,385.5 236.833,385.5 235.5,385.5C 235.5,387.167 235.5,388.833 235.5,390.5C 230.29,390.959 225.623,392.625 221.5,395.5C 209.77,395.23 198.103,395.897 186.5,397.5C 186.5,398.5 186.5,399.5 186.5,400.5C 175.856,402.116 165.189,403.449 154.5,404.5C 148.491,404.334 142.491,404.501 136.5,405C 130.142,408.402 123.475,409.236 116.5,407.5C 111.18,404.504 107.514,400.171 105.5,394.5C 105.5,390.5 105.5,386.5 105.5,382.5C 105.951,378.867 106.951,375.367 108.5,372C 108.355,371.228 108.022,370.561 107.5,370C 109.134,369.506 110.801,369.34 112.5,369.5C 112.456,362.497 111.123,355.83 108.5,349.5C 108.701,347.352 109.034,345.186 109.5,343C 109.241,341.739 108.574,340.739 107.5,340C 108.667,339.5 109.5,338.667 110,337.5C 111.017,339.376 111.851,341.376 112.5,343.5C 113.48,340.914 113.813,338.247 113.5,335.5C 115.5,335.5 117.5,335.5 119.5,335.5C 119.5,340.833 119.5,346.167 119.5,351.5C 124.875,351.172 130.208,351.505 135.5,352.5C 132.914,353.48 130.247,353.813 127.5,353.5C 127.5,354.5 127.5,355.5 127.5,356.5C 133.397,356.633 139.23,357.3 145,358.5C 148.399,358.265 150.732,356.598 152,353.5C 154.386,354.763 156.219,356.597 157.5,359C 155.423,359.192 153.423,359.692 151.5,360.5C 155.927,361.751 160.26,361.418 164.5,359.5C 168.032,360.967 171.698,361.634 175.5,361.5C 175.5,362.5 175.5,363.5 175.5,364.5C 177.527,364.338 179.527,364.505 181.5,365C 176.136,365.171 170.802,365.671 165.5,366.5C 168.768,367.487 172.102,367.82 175.5,367.5C 175.5,368.833 175.5,370.167 175.5,371.5C 180.833,371.5 186.167,371.5 191.5,371.5C 191.5,370.167 191.5,368.833 191.5,367.5C 192.833,367.5 194.167,367.5 195.5,367.5C 195.335,364.482 195.502,361.482 196,358.5C 196.667,357.167 197.667,356.167 199,355.5C 199.497,352.854 199.664,350.187 199.5,347.5C 198.167,347.5 196.833,347.5 195.5,347.5C 195.688,349.103 195.188,350.437 194,351.5C 193.505,349.527 193.338,347.527 193.5,345.5C 195.249,343.517 196.916,341.35 198.5,339C 196.254,335.833 196.42,333 199,330.5C 198.547,332.454 198.38,334.287 198.5,336C 199.554,338.382 200.221,340.882 200.5,343.5C 201.833,343.5 203.167,343.5 204.5,343.5C 205.149,338.864 205.649,334.198 206,329.5C 209.076,328.712 212.242,328.212 215.5,328C 215.481,325.031 215.314,321.865 215,318.5C 214.329,317.748 213.496,317.414 212.5,317.5C 211.883,317.389 211.383,317.056 211,316.5C 209.99,311.442 210.49,306.609 212.5,302C 222.161,301.5 231.828,301.334 241.5,301.5 Z"/></g>
<g><path style="opacity:0.122" fill="#addcf2" d="M 77.5,146.5 C 78.4992,219.331 78.8326,292.331 78.5,365.5C 77.7059,307.666 77.0392,249.666 76.5,191.5C 76.7025,176.495 77.0358,161.495 77.5,146.5 Z"/></g>
<g><path style="opacity:0.004" fill="#fefffe" d="M 439.5,303.5 C 440.833,304.167 440.833,304.167 439.5,303.5 Z"/></g>
<g><path style="opacity:0.342" fill="#66a1bc" d="M 403.5,137.5 C 405.708,138.894 407.208,140.894 408,143.5C 408.441,217.838 408.774,292.172 409,366.5C 408.528,370.11 407.028,373.11 404.5,375.5C 404.848,373.287 405.681,371.287 407,369.5C 407.833,294.831 407.667,220.164 406.5,145.5C 405.745,142.675 404.745,140.009 403.5,137.5 Z"/></g>
<g><path style="opacity:1" fill="#0c749f" d="M 240.5,283.5 C 240.5,284.5 240.5,285.5 240.5,286.5C 226.656,286.171 212.99,286.504 199.5,287.5C 192.936,294.731 185.936,301.731 178.5,308.5C 177.667,321.154 177.167,333.82 177,346.5C 176.333,347.167 175.667,347.833 175,348.5C 174.151,355.553 176.818,357.553 183,354.5C 184.035,351.351 183.368,348.684 181,346.5C 180.333,333.833 180.333,321.167 181,308.5C 187.968,302.48 194.468,296.146 200.5,289.5C 214.167,289.5 227.833,289.5 241.5,289.5C 241.5,290.5 241.5,291.5 241.5,292.5C 229.655,292.172 217.988,292.505 206.5,293.5C 201.175,299.325 195.675,304.991 190,310.5C 189.5,317.826 189.334,325.159 189.5,332.5C 188.178,332.33 187.011,332.663 186,333.5C 184.813,340.995 187.479,342.995 194,339.5C 194.936,336.648 194.27,334.315 192,332.5C 191.333,325.5 191.333,318.5 192,311.5C 197.167,306.333 202.333,301.167 207.5,296C 218.828,295.5 230.162,295.333 241.5,295.5C 241.5,296.833 241.5,298.167 241.5,299.5C 231.494,299.334 221.494,299.5 211.5,300C 210.789,301.255 209.956,302.421 209,303.5C 208.501,307.821 208.334,312.154 208.5,316.5C 207.178,316.33 206.011,316.663 205,317.5C 203.813,324.995 206.479,326.995 213,323.5C 213.678,321.402 213.511,319.402 212.5,317.5C 213.496,317.414 214.329,317.748 215,318.5C 215.314,321.865 215.481,325.031 215.5,328C 212.242,328.212 209.076,328.712 206,329.5C 205.649,334.198 205.149,338.864 204.5,343.5C 203.167,343.5 201.833,343.5 200.5,343.5C 200.221,340.882 199.554,338.382 198.5,336C 198.38,334.287 198.547,332.454 199,330.5C 196.42,333 196.254,335.833 198.5,339C 196.916,341.35 195.249,343.517 193.5,345.5C 192.417,345.539 191.417,345.873 190.5,346.5C 190.264,345.753 189.93,344.92 189.5,344C 187.541,343.069 185.541,342.236 183.5,341.5C 182.386,342.723 182.219,344.056 183,345.5C 186.805,347.808 188.138,351.141 187,355.5C 184.988,360.145 181.488,361.645 176.5,360C 175.833,358.333 175.167,356.667 174.5,355C 173.551,354.383 172.718,354.549 172,355.5C 171.311,352.421 170.811,349.588 170.5,347C 172.641,345.692 174.641,344.192 176.5,342.5C 170.145,342.487 164.811,340.32 160.5,336C 160.974,334.271 161.974,333.105 163.5,332.5C 163.548,338.191 166.215,339.857 171.5,337.5C 173.114,334.405 172.614,331.739 170,329.5C 169.333,320.5 169.333,311.5 170,302.5C 176.167,296.333 182.333,290.167 188.5,284C 205.83,283.5 223.163,283.333 240.5,283.5 Z"/></g>
<g><path style="opacity:1" fill="#4a8cac" d="M 388.5,130.5 C 386.735,131.461 384.735,131.795 382.5,131.5C 382.5,215.167 382.5,298.833 382.5,382.5C 385.85,382.665 389.183,382.498 392.5,382C 395.205,381.522 397.205,380.689 398.5,379.5C 398.354,377.058 399.187,376.391 401,377.5C 401.816,376.177 402.983,375.511 404.5,375.5C 398.366,382.996 390.533,385.662 381,383.5C 380.5,365.503 380.333,347.503 380.5,329.5C 380.38,315.085 380.714,300.752 381.5,286.5C 381.5,234.5 381.5,182.5 381.5,130.5C 383.833,130.5 386.167,130.5 388.5,130.5 Z"/></g>
<g><path style="opacity:0.004" fill="#fefffe" d="M 455.5,322.5 C 456.833,323.167 456.833,323.167 455.5,322.5 Z"/></g>
<g><path style="opacity:1" fill="#40bee2" d="M 241.5,299.5 C 241.5,300.167 241.5,300.833 241.5,301.5C 231.828,301.334 222.161,301.5 212.5,302C 210.49,306.609 209.99,311.442 211,316.5C 211.383,317.056 211.883,317.389 212.5,317.5C 213.511,319.402 213.678,321.402 213,323.5C 206.479,326.995 203.813,324.995 205,317.5C 206.011,316.663 207.178,316.33 208.5,316.5C 208.334,312.154 208.501,307.821 209,303.5C 209.956,302.421 210.789,301.255 211.5,300C 221.494,299.5 231.494,299.334 241.5,299.5 Z"/></g>
<g><path style="opacity:1" fill="#027fa4" d="M 207.5,318.5 C 211.161,318.35 212.161,319.85 210.5,323C 206.707,323.487 205.707,321.987 207.5,318.5 Z"/></g>
<g><path style="opacity:1" fill="#0880a4" d="M 166.5,331.5 C 167.833,331.5 169.167,331.5 170.5,331.5C 170.5,333.167 170.5,334.833 170.5,336.5C 166.065,337.078 164.732,335.411 166.5,331.5 Z"/></g>
<g><path style="opacity:1" fill="#047ca1" d="M 188.5,334.5 C 192.161,334.35 193.161,335.85 191.5,339C 187.707,339.487 186.707,337.987 188.5,334.5 Z"/></g>
<g><path style="opacity:0.004" fill="#fefffe" d="M 453.5,345.5 C 454.833,346.167 454.833,346.167 453.5,345.5 Z"/></g>
<g><path style="opacity:0.004" fill="#fefffe" d="M 55.5,350.5 C 56.8333,351.167 56.8333,351.167 55.5,350.5 Z"/></g>
<g><path style="opacity:1" fill="#51a0c5" d="M 241.5,301.5 C 242.498,327.995 242.831,354.661 242.5,381.5C 242.068,382.71 241.401,383.71 240.5,384.5C 240.833,382.5 241.167,380.5 241.5,378.5C 241.5,352.833 241.5,327.167 241.5,301.5 Z"/></g>
<g><path style="opacity:0.004" fill="#fefffe" d="M 55.5,356.5 C 56.8333,357.167 56.8333,357.167 55.5,356.5 Z"/></g>
<g><path style="opacity:0.976" fill="#4781a1" d="M 241.5,378.5 C 241.167,380.5 240.833,382.5 240.5,384.5C 239.474,387.372 237.808,389.872 235.5,392C 231.064,394.109 226.397,395.276 221.5,395.5C 225.623,392.625 230.29,390.959 235.5,390.5C 235.5,388.833 235.5,387.167 235.5,385.5C 236.833,385.5 238.167,385.5 239.5,385.5C 239.338,383.473 239.505,381.473 240,379.5C 240.383,378.944 240.883,378.611 241.5,378.5 Z"/></g>
<g><path style="opacity:0.992" fill="#9acfe3" d="M 245.5,384.5 C 246.167,384.5 246.833,384.5 247.5,384.5C 249.773,385.767 251.773,387.433 253.5,389.5C 256.93,390.381 260.263,391.548 263.5,393C 276.859,396.027 290.192,398.527 303.5,400.5C 285.841,399.501 268.508,396.668 251.5,392C 248.882,389.894 246.882,387.394 245.5,384.5 Z"/></g>
<g><path style="opacity:0.925" fill="#4384a4" d="M 221.5,395.5 C 209.953,397.219 198.287,398.885 186.5,400.5C 186.5,399.5 186.5,398.5 186.5,397.5C 198.103,395.897 209.77,395.23 221.5,395.5 Z"/></g>
<g><path style="opacity:0.004" fill="#fefffe" d="M 213.5,400.5 C 214.833,401.167 214.833,401.167 213.5,400.5 Z"/></g>
<g><path style="opacity:0.984" fill="#659bb9" d="M 154.5,404.5 C 144.538,406.092 134.538,408.092 124.5,410.5C 122.224,409.787 119.891,409.287 117.5,409C 116.944,408.617 116.611,408.117 116.5,407.5C 123.475,409.236 130.142,408.402 136.5,405C 142.491,404.501 148.491,404.334 154.5,404.5 Z"/></g>
<g><path style="opacity:0.369" fill="#b3dceb" d="M 339.5,405.5 C 348.19,406.551 356.856,406.551 365.5,405.5C 362.923,406.972 360.089,407.972 357,408.5C 351.036,407.727 345.203,406.727 339.5,405.5 Z"/></g>
<g><path style="opacity:0.004" fill="#fefffe" d="M 261.5,416.5 C 262.833,417.167 262.833,417.167 261.5,416.5 Z"/></g>
<g><path style="opacity:0.004" fill="#fefffe" d="M 227.5,418.5 C 228.833,419.167 228.833,419.167 227.5,418.5 Z"/></g>
<g><path style="opacity:0.004" fill="#fefffe" d="M 270.5,425.5 C 271.833,426.167 271.833,426.167 270.5,425.5 Z"/></g>
<g><path style="opacity:0.004" fill="#fefffe" d="M 27.5,432.5 C 28.8333,433.167 28.8333,433.167 27.5,432.5 Z"/></g>
<g><path style="opacity:0.004" fill="#fefffe" d="M 64.5,441.5 C 65.8333,442.167 65.8333,442.167 64.5,441.5 Z"/></g>
<g><path style="opacity:0.004" fill="#fefffe" d="M 261.5,444.5 C 262.833,445.167 262.833,445.167 261.5,444.5 Z"/></g>
<g><path style="opacity:0.004" fill="#fefffe" d="M 132.5,446.5 C 133.833,447.167 133.833,447.167 132.5,446.5 Z"/></g>
<g><path style="opacity:0.004" fill="#fefffe" d="M 87.5,449.5 C 88.8333,450.167 88.8333,450.167 87.5,449.5 Z"/></g>
<g><path style="opacity:0.004" fill="#fefffe" d="M 106.5,457.5 C 107.833,458.167 107.833,458.167 106.5,457.5 Z"/></g>
<g><path style="opacity:0.004" fill="#fefffe" d="M 160.5,458.5 C 161.833,459.167 161.833,459.167 160.5,458.5 Z"/></g>
<g><path style="opacity:0.004" fill="#fefffe" d="M 388.5,473.5 C 389.833,474.167 389.833,474.167 388.5,473.5 Z"/></g>
<g><path style="opacity:0.004" fill="#fefffe" d="M 189.5,474.5 C 190.833,475.167 190.833,475.167 189.5,474.5 Z"/></g>
<g><path style="opacity:0.004" fill="#fefffe" d="M 130.5,479.5 C 131.833,480.167 131.833,480.167 130.5,479.5 Z"/></g>
<g><path style="opacity:0.004" fill="#fefffe" d="M 432.5,480.5 C 433.833,481.167 433.833,481.167 432.5,480.5 Z"/></g>
<g><path style="opacity:0.004" fill="#fefffe" d="M 68.5,484.5 C 69.8333,485.167 69.8333,485.167 68.5,484.5 Z"/></g>
<g><path style="opacity:0.004" fill="#fefffe" d="M 82.5,484.5 C 83.8333,485.167 83.8333,485.167 82.5,484.5 Z"/></g>
<g><path style="opacity:0.004" fill="#fefffe" d="M 94.5,494.5 C 95.8333,495.167 95.8333,495.167 94.5,494.5 Z"/></g>
<g><path style="opacity:0.004" fill="#fefffe" d="M 355.5,500.5 C 356.833,501.167 356.833,501.167 355.5,500.5 Z"/></g>
<g><path style="opacity:0.004" fill="#fefffe" d="M 401.5,501.5 C 402.833,502.167 402.833,502.167 401.5,501.5 Z"/></g>
<g><path style="opacity:0.004" fill="#fefffe" d="M 472.5,503.5 C 473.833,504.167 473.833,504.167 472.5,503.5 Z"/></g>
<g><path style="opacity:0.004" fill="#fefffe" d="M 88.5,504.5 C 89.8333,505.167 89.8333,505.167 88.5,504.5 Z"/></g>
<g><path style="opacity:0.004" fill="#fefffe" d="M 21.5,510.5 C 22.8333,511.167 22.8333,511.167 21.5,510.5 Z"/></g>
</svg>
