<?xml version="1.0" encoding="UTF-8"?>
<svg id="IA" xmlns="http://www.w3.org/2000/svg" viewBox="0 0 250 150">
  <defs>
    <style>
      .cls-1 {
        fill: #fff;
      }

      .cls-2 {
        fill: none;
        stroke: #fff;
        stroke-linecap: round;
        stroke-linejoin: round;
        stroke-width: 2.57px;
      }
    </style>
  </defs>
  <g>
    <g>
      <path class="cls-1" d="M91.49,81.78c-.16-.04-.14-.16-.09-.29.16-.43.56-1.45,1.07-2.78,1.32-3.42,4.62-11.97,5.25-13.59.13-.44.61-.34,1.05-.37.62,0,1.66,0,2.36,0,.61.05,1.07-.12,1.27.37.73,1.92,4.85,12.38,6.39,16.5.02.17-.17.2-.74.21-.62,0-1.71,0-2.37,0-.44-.03-.87.04-1.03-.32-.8-2.14-3.57-10.06-4.45-12.43-.17-.47-.28-.04-.39.23-.72,1.97-3.71,10.22-4.38,12.03-.07.17-.12.32-.29.4-.14.07-.39.09-.76.1-.88-.02-2.03.06-2.86-.04h-.02Z"/>
      <path class="cls-1" d="M111.08,81.78c-.16-.04-.19-.16-.19-.3,0-3.96,0-14.53,0-16.34,0-.14,0-.26.12-.33,1.06-.13,2.3-.01,4.01-.05,1.37.01,3.21-.03,4.41.03,1.47.08,3.16.63,4.16,1.8,2.21,2.51,1.8,7.37-1.26,9.12-1.63.94-3.09.9-5.03.9-.65.03-1.95-.07-2.35.1-.3.15-.26.54-.28.84,0,.91.02,2.63,0,3.47.06.98-.78.79-1.54.82-.61,0-1.57.03-2.04-.05h-.02ZM114.82,73.24c.41.2,1.63.07,2.23.11,1.37-.02,2.6.06,3.49-.94.66-.86.7-2.27.2-3.24-.47-.86-1.53-1.09-2.43-1.15-.9-.04-2.1-.02-2.94-.02-.26,0-.44.03-.55.11-.22.09-.16.82-.17,1.28,0,.92,0,1.93,0,2.79,0,.56-.03.9.15,1.03h.02Z"/>
      <path class="cls-1" d="M127.86,81.78c-.16-.04-.19-.16-.19-.3,0-2.23,0-6.22,0-9.04,0-3.27,0-6.36,0-7.29,0-.19,0-.36.25-.37,2.2-.03,5.9-.06,8.36.02,2.4.1,4.92,1.51,5.39,4.06.34,1.61.03,3.48-1.08,4.67-2.04,2.2-5.2,2.15-8,2.14-.73,0-1.15.04-1.11.88,0,1.05,0,3.29,0,4.37.07,1.06-.57.9-1.44.92-.64,0-1.64.04-2.14-.05h-.02ZM131.59,72.52c.38.22,1.64.08,2.24.12,1.37-.03,2.46.1,3.47-.72.63-.56.82-1.56.58-2.37-.23-.86-.98-1.29-1.81-1.43-.75-.15-1.67-.11-2.65-.12-.55.04-1.35-.1-1.82.12-.22.1-.17.8-.18,1.29,0,.64,0,1.43,0,2.02,0,.57-.02.93.15,1.07h.02ZM138.59,81.8c-.13-.05-.21-.14-.29-.26-.18-.26-.46-.76-.85-1.38-.94-1.57-2.34-3.86-2.77-4.6-.37-.55.64-.52,1.08-.66.58-.11,1.44-.29,1.95-.36.45-.05.55.06.79.43.87,1.39,3.48,5.42,4.21,6.66.24.4-1.28.2-1.68.25-.72-.02-1.88.07-2.41-.07h-.02Z"/>
      <path class="cls-1" d="M161.21,81.77c-.18-.05-.21-.18-.22-.35,0-.53,0-1.78,0-3.38.03-3.25-.07-11.04.04-13.07.15-.23.4-.18.75-.21.48-.01,1.06-.01,1.55,0,.84,0,1.09.04,1.62.76,2.14,2.55,6.5,7.74,7.64,9.09.11.1.23.31.31.19.09-.57.03-1.18.05-2.01,0-2.17-.01-5.43,0-7.45-.04-.56.5-.57.93-.58.58,0,1.47,0,2.01,0,.32.02.83-.04.81.4.01,3.78,0,13.62,0,16.22.02.3-.19.4-.47.42-.65.01-1.89.13-2.59-.1-1.66-1.65-6.29-7.58-8.67-10.28-.24-.26-.2.17-.22.36,0,1.58,0,7.64,0,9.37,0,.18,0,.37-.11.49-.09.1-.25.14-.51.16-.4.03-1.08.02-1.68.02-.57,0-1,0-1.21-.06h-.02Z"/>
      <path class="cls-1" d="M180.52,81.78c-.09-.04-.11-.1-.12-.19-.02-.43,0-1.82,0-3.64,0-4.55,0-11.74,0-12.91,0-.31.36-.26.63-.27.98,0,3.68,0,4.94,0,2.22-.03,4.61.21,6.55,1.46,2.41,1.48,3.51,4.18,3.51,6.91.06,2.85-.96,5.46-3.24,7.03-2.41,1.65-4.93,1.72-7.87,1.69-1.35-.03-3.21.08-4.39-.05h-.01ZM184.41,78.45c.3.1,1.33.06,1.98.06,1.68,0,3.52-.3,4.64-1.66,1.28-1.49,1.36-3.97.79-5.85-.49-1.6-2.02-2.62-3.65-2.8-.55-.08-1.07-.11-1.68-.12-.72,0-1.55-.03-1.96.04-.24.05-.33.13-.35.34-.02,1.76-.01,7.1,0,9.67.01.14.06.26.21.31h.02Z"/>
    </g>
    <path class="cls-1" d="M227.76,80.29v-5.16h-5.1v-3.52h5.07v-5.19h3.77v5.16h5.07v3.52h-5.04v5.19h-3.77Z"/>
    <g>
      <path class="cls-1" d="M157.72,78.52h-8.43c-.33,0-.59-.26-.59-.59v-9.29c0-.33.26-.59.59-.59h8.22c.29,0,.53-.24.53-.53v-2.23c0-.29-.24-.53-.53-.53h-12.12c-.24,0-.44.2-.44.44v16.26c0,.24.19.43.43.43h12.32c.3,0,.54-.24.54-.54v-2.28c0-.3-.24-.54-.54-.54Z"/>
      <path class="cls-1" d="M145.59,72.62h10.74c.28,0,.5.22.5.5v2.29c0,.28-.23.5-.5.5h-10.07c-.6,0-1.08-.48-1.08-1.08v-1.8c0-.23.18-.41.41-.41Z"/>
    </g>
    <g>
      <path class="cls-1" d="M211.42,78.56h-8.43c-.33,0-.59-.26-.59-.59v-9.29c0-.33.26-.59.59-.59h8.22c.29,0,.53-.24.53-.53v-2.23c0-.29-.24-.53-.53-.53h-12.12c-.24,0-.44.2-.44.44v16.26c0,.24.19.43.43.43h12.32c.3,0,.54-.24.54-.54v-2.28c0-.3-.24-.54-.54-.54Z"/>
      <path class="cls-1" d="M199.29,72.67h10.74c.28,0,.5.22.5.5v2.29c0,.28-.23.5-.5.5h-10.07c-.6,0-1.08-.48-1.08-1.08v-1.8c0-.23.18-.41.41-.41Z"/>
    </g>
  </g>
  <g>
    <path class="cls-2" d="M83.19,71.91c0-5.18-3.78-9.47-8.72-10.28v-.83c0-6.89-5.59-12.48-12.48-12.48h-27.47c-6.89,0-12.48,5.59-12.48,12.48v.85c-4.89.86-8.61,5.12-8.61,10.26s3.72,9.41,8.61,10.26v6.09c0,6.89,5.59,12.48,12.48,12.48h27.47c6.89,0,12.48-5.59,12.48-12.48v-6.07c4.95-.81,8.72-5.11,8.72-10.28Z"/>
    <path class="cls-1" d="M38.24,75.2c1.03.01,1.51-1.34,1.77-1.99.77-2.31.9-4.8.66-7.25-.13-1.17-.38-2.37-.86-3.46-1.46-3.2-2.91-1.53-3.54.64-.84,2.73-.79,6.51-.05,9.21.22.93,1.02,2.82,2.01,2.85h0Z"/>
    <path class="cls-1" d="M63.75,73.63c.21-2.98-3.3-9.49-5.72-11.43-1.22-.99-2.37-.79-3.47.22-1.51,1.35-3,3.9-3.96,5.91-.47.99-.9,2.03-1.19,3.06-.28.99-.8,3.52.75,3.1,1.39-.53,2.58-2.71,3.64-3.89.79-.88,1.68-2.57,2.91-2.42,1.22.21,1.64,1.28,2.45,2.15.91,1.06,4.25,5.81,4.6,3.31h0Z"/>
  </g>
</svg>