<?xml version="1.0" encoding="UTF-8"?>
<svg id="Principal-mis_cursos" xmlns="http://www.w3.org/2000/svg" viewBox="0 0 250 150">
  <path d="M98.73,110.48c-5.17,0-10.34.02-15.51,0-5.58-.02-9.27-4.22-9.49-10.22-.41-11.27,8.27-21.31,19.59-21.07,3.84.08,7.68,0,11.52.02,10.7.05,19.17,9.23,19.18,20.77,0,6.17-4,10.49-9.77,10.5-5.17.01-10.34,0-15.51,0ZM98.78,104.71c5.22,0,10.45.02,15.67,0,2.68-.02,4.16-1.64,4.22-4.51.18-8.41-5.85-15.14-13.66-15.21-3.99-.04-7.99-.02-11.98,0-7.93.03-13.76,6.09-14.1,14.64-.13,3.26,1.46,5.09,4.49,5.1,5.12.02,10.24,0,15.36,0Z"/>
  <path d="M115.48,57.56c-.02,9.91-7.52,17.9-16.79,17.86-9.1-.03-16.59-8.14-16.58-17.96,0-9.89,7.54-17.96,16.75-17.94,9.22.01,16.63,8.07,16.62,18.05ZM110.13,57.46c0-6.83-4.93-12.17-11.25-12.18-6.45-.01-11.41,5.29-11.4,12.19,0,6.9,4.97,12.2,11.42,12.18,6.32-.02,11.24-5.36,11.24-12.19Z"/>
  <path d="M119.71,69.36c3.71.23,6.53-1.41,8.1-5,1.55-3.53,1.14-7-1.21-10.04-1.51-1.95-3.55-2.94-5.9-3.1-1.02-.07-1.93-.33-2.55-1.26-.54-.82-.66-1.71-.22-2.65.55-1.16,1.48-1.76,2.62-1.67,5.48.44,9.7,3.13,12,8.59,2.4,5.71,1.62,11.1-2.25,15.82-3.17,3.87-7.23,5.48-11.99,4.8-2.02-.29-2.98-1.4-2.87-2.98.12-1.7,1.25-2.56,3.34-2.52.31,0,.61,0,.92,0Z"/>
  <path d="M139.1,96.17c-.03,1.59.16,3.19-.59,4.69-1.52,3.03-6.1,4.67-9.01,3.16-1.06-.55-1.66-1.46-1.5-2.79.17-1.38.93-2.2,2.19-2.38.81-.11,1.64-.08,2.45-.07,1.04.02,1.42-.53,1.47-1.62.4-7.48-4.27-12.79-10.14-12.97-1.93-.06-3.14-1.4-3.01-3,.15-1.82,1.59-2.79,3.82-2.56,8.25.87,14.75,8.32,14.32,17.52Z"/>
</svg>