<?xml version="1.0" encoding="UTF-8"?>
<svg id="IA" xmlns="http://www.w3.org/2000/svg" viewBox="0 0 250 150">
  <defs>
    <style>
		.cls-1 {
		fill: #ffffff;
		}
	</style>
  </defs>
  <path class="cls-1" d="M102.46,107.05c-2.3,0-4.6.03-6.9-.01-2.94-.06-4.19-2.1-2.78-4.65,1.99-3.58,4.08-7.1,6.18-10.61.57-.96.79-1.93.79-3.03-.03-6.34-.01-12.67-.01-19.01,0-11.97,6.24-21,17.42-25.14,1.22-.45,1.35-.91.85-2.08-1.47-3.37-.48-6.95,2.38-9.18,2.6-2.02,6.67-2.02,9.26,0,2.86,2.23,3.85,5.81,2.37,9.18-.52,1.18-.34,1.63.86,2.07,11.13,4.09,17.4,13.11,17.41,24.96,0,6.39.01,12.79-.01,19.18,0,1.1.21,2.07.78,3.03,2.02,3.37,4.02,6.75,5.95,10.16,1.76,3.12.56,5.11-3.03,5.12-4.49.01-8.97.04-13.46-.02-1.21-.01-1.78.43-2.18,1.57-2.15,6.06-7.14,9.59-13.4,9.58-6.1,0-11.13-3.59-13.23-9.57-.44-1.26-1.12-1.62-2.35-1.58-2.3.07-4.6.02-6.9.02ZM124.96,87.38c5.71,0,11.43,0,17.14,0q2.36,0,2.37-2.44c0-5.32-.07-10.65.01-15.97.19-11.97-9.84-20.33-20.18-19.9-10.06.41-18.63,8.74-18.74,18.8-.07,5.88.03,11.76-.05,17.65-.02,1.51.53,1.91,1.96,1.89,5.83-.06,11.65-.03,17.48-.03ZM124.93,101.25c7.73,0,15.46-.02,23.19.02,1.46,0,1.68-.41.94-1.62-1.12-1.81-2.21-3.64-3.23-5.51-.5-.92-1.19-1.19-2.18-1.19-12.44.02-24.87.02-37.31,0-1,0-1.67.29-2.17,1.2-.99,1.82-2.1,3.57-3.13,5.37-.91,1.59-.83,1.72,1.03,1.73,7.62,0,15.24,0,22.86,0ZM124.97,107.06c-2.12,0-4.24.01-6.37,0-1.09,0-1.3.45-.76,1.33,1.6,2.65,4.02,4.1,7.05,4.14,3.1.04,5.58-1.38,7.26-4.07.6-.96.37-1.42-.81-1.41-2.12.03-4.24,0-6.37,0ZM124.97,41.32c1.16-.08,1.93-.64,1.94-1.85.01-1.22-.79-1.92-1.91-1.9-1.11.02-1.9.77-1.88,1.96.01,1.13.75,1.68,1.85,1.79Z"/>
</svg>