<?xml version="1.0" encoding="UTF-8"?>
<svg id="IA" xmlns="http://www.w3.org/2000/svg" viewBox="0 0 250 150">
  <defs>
    <style>
      .cls-1 {
        fill: #a9a9a9;
      }
    </style>
  </defs>
  <path class="cls-1" d="M118.14,129.61c-26.62-.02-48.71-19.99-51.55-46.08-1.82-16.71,3.49-31.03,15.27-42.81,16.54-16.54,42.93-19.57,62.58-7.52,2.97,1.82,3.72,4.76,1.81,7.1-1.55,1.9-3.7,2.16-6.37.62-5.02-2.89-10.32-4.99-16.1-5.69-12.97-1.59-24.48,1.8-34.22,10.51-10.43,9.34-15.33,21.2-14.3,35.13,1.1,14.81,8.28,26.33,21.08,33.76,21.32,12.38,48.29,5.47,60.25-17.2,5.05-9.57,6.29-19.82,3.36-30.4-.78-2.81.45-5.49,2.8-6.11,2.4-.64,4.89.92,5.61,3.75,2.38,9.35,2.08,18.68-.68,27.9-5.96,19.91-23.3,34.35-43.85,36.66-2.11.24-4.22.41-5.69.38Z"/>
  <path class="cls-1" d="M169.95,38.99c-.01,1.73-1.06,2.88-2.19,4.01-6.78,6.77-13.55,13.54-20.32,20.32-12.66,12.66-25.32,25.32-37.98,37.97-3.42,3.41-5.3,3.41-8.71,0-5.11-5.1-10.21-10.22-15.33-15.32-1.02-1.02-1.92-2.1-1.99-3.62-.1-1.9.66-3.42,2.38-4.25,1.96-.95,3.86-.64,5.42.9,3.86,3.8,7.68,7.65,11.51,11.47q2.36,2.35,4.68.03c17.71-17.71,35.42-35.42,53.13-53.13.94-.94,1.83-1.96,3.08-2.52,2.89-1.31,6.35.95,6.32,4.13Z"/>
</svg>