<?xml version="1.0" encoding="UTF-8"?>
<svg id="Principal-mis_cursos" xmlns="http://www.w3.org/2000/svg" viewBox="0 0 250 150">
  <path d="M166.11,74.74c0,15.02,0,30.04,0,45.06,0,3.68-.91,6.96-4.02,9.3-1.63,1.23-3.44,1.92-5.5,1.92-21.84,0-43.67.02-65.51-.02-5.25-.01-9.01-3.91-9.52-9.6-.06-.73-.05-1.46-.05-2.2,0-24.84.02-49.68-.04-74.52,0-2.37.65-4.16,2.37-5.84,6.4-6.24,12.7-12.59,18.97-18.95,1.28-1.3,2.64-1.84,4.46-1.83,15.97.05,31.95.02,47.92.03,6.89,0,10.87,3.94,10.88,10.93.04,15.24.01,30.48.01,45.72ZM160.64,74.7c0-15.25,0-30.49,0-45.74,0-3.92-1.71-5.7-5.58-5.71-13.56-.03-27.12.02-40.68-.05-1.91,0-2.36.71-2.32,2.45.09,4.32.07,8.65.02,12.97-.06,5.06-3.47,8.99-8.45,9.69-4.52.63-9.08.18-13.61.27-3.01.07-3.01.02-3.01,3.09,0,22.65,0,45.3,0,67.95,0,4.62,1.57,6.21,6.18,6.22,20.45,0,40.9,0,61.35,0,4.49,0,6.11-1.62,6.11-6.07,0-15.03,0-30.05,0-45.08ZM106.52,24.96c-6.05,6.07-12.15,12.18-18.1,18.15,4.45,0,9.34.11,14.22-.06,1.94-.07,3.73-1.27,3.81-3.34.2-5.02.07-10.05.07-14.76Z"/>
  <path d="M127.12,85.65c2.19-2.22,4.38-4.45,6.57-6.67.88-.88,1.72-1.81,2.69-2.59,1.15-.93,2.45-1.12,3.53.1.97,1.09.81,2.29-.07,3.4-.23.29-.49.54-.75.8-4.3,4.3-8.59,8.61-12.91,12.89-1.94,1.92-2.83,1.91-4.78-.03-4.37-4.33-8.7-8.7-13.06-13.05-1.22-1.21-1.86-2.53-.62-4.05,1.02-1.24,2.59-1.03,4.2.54,2.41,2.35,4.76,4.77,7.17,7.13.5.49.86,1.2,1.73,1.26.61-.7.34-1.54.34-2.3.02-6.89,0-13.77.02-20.66,0-.87.01-1.77.21-2.61.28-1.16,1.04-1.93,2.32-1.97,1.39-.04,2.21.75,2.51,2.01.2.84.2,1.74.21,2.62.02,6.81,0,13.63,0,20.44,0,.79,0,1.59,0,2.38.23.12.45.25.68.37Z"/>
  <path d="M123.66,109.47c-4.46,0-8.92-.01-13.38,0-1.79,0-3.26-.38-3.38-2.52-.1-1.76,1.05-2.64,3.46-2.64,8.99-.01,17.98,0,26.98-.01,1.79,0,3.26.37,3.38,2.52.1,1.77-1.05,2.63-3.46,2.65-4.53.02-9.06,0-13.6,0Z"/>
</svg>