<?xml version="1.0" encoding="UTF-8"?>
<svg id="Principal-mis_cursos" xmlns="http://www.w3.org/2000/svg" viewBox="0 0 250 150">
  <path d="M168.55,75.23c0,16.7,0,33.4,0,50.1,0,4.09-1.01,7.73-4.47,10.34-1.82,1.37-3.82,2.13-6.11,2.13-24.28,0-48.56.03-72.83-.02-5.84-.01-10.02-4.35-10.58-10.68-.07-.81-.05-1.63-.05-2.44,0-27.62.02-55.24-.04-82.85,0-2.63.72-4.62,2.63-6.49,7.11-6.94,14.12-13.99,21.09-21.07,1.43-1.45,2.93-2.05,4.96-2.04,17.76.06,35.52.03,53.28.04,7.67,0,12.08,4.39,12.1,12.15.04,16.95.01,33.89.01,50.84ZM162.47,75.19c0-16.95,0-33.9,0-50.85,0-4.35-1.9-6.34-6.2-6.35-15.08-.03-30.15.02-45.23-.06-2.12-.01-2.62.79-2.58,2.73.1,4.81.07,9.62.02,14.42-.07,5.62-3.86,10-9.39,10.77-5.02.7-10.09.2-15.14.3-3.34.07-3.35.03-3.35,3.44,0,25.18,0,50.36,0,75.54,0,5.14,1.75,6.91,6.88,6.91,22.74,0,45.47,0,68.21,0,4.99,0,6.79-1.8,6.79-6.75,0-16.71,0-33.41,0-50.12ZM102.31,19.88c-6.73,6.75-13.5,13.55-20.12,20.18,4.95,0,10.39.13,15.81-.06,2.15-.07,4.15-1.41,4.24-3.71.23-5.58.07-11.18.07-16.41Z"/>
  <path d="M117.86,66.84c-2.44,2.47-4.86,4.95-7.31,7.42-.97.98-1.92,2.01-2.99,2.88-1.28,1.03-2.73,1.24-3.93-.11-1.08-1.21-.9-2.54.08-3.77.25-.32.55-.6.84-.89,4.78-4.78,9.55-9.58,14.35-14.34,2.15-2.13,3.14-2.13,5.32.03,4.86,4.82,9.68,9.68,14.52,14.51,1.36,1.35,2.07,2.81.68,4.5-1.13,1.38-2.88,1.15-4.67-.6-2.68-2.62-5.3-5.3-7.97-7.93-.55-.54-.96-1.34-1.92-1.41-.68.78-.37,1.71-.38,2.56-.03,7.66,0,15.31-.03,22.97,0,.97-.01,1.97-.24,2.91-.31,1.29-1.15,2.15-2.58,2.19-1.55.04-2.46-.83-2.79-2.23-.22-.94-.23-1.94-.23-2.91-.02-7.58,0-15.15,0-22.73,0-.88,0-1.76,0-2.64-.25-.14-.5-.27-.75-.41Z"/>
</svg>