<?xml version="1.0" encoding="UTF-8"?>
<svg id="Principal-mis_cursos" xmlns="http://www.w3.org/2000/svg" viewBox="0 0 250 150">
  <path d="M146.14,77.69c0,8.27,0,16.53,0,24.8,0,4.87-2.61,7.99-6.67,7.99-9.65.01-19.3.01-28.95,0-4.06,0-6.65-3.14-6.65-8.03,0-16.64,0-33.28,0-49.92,0-4.78,2.61-7.92,6.57-7.96.39,0,.79-.03,1.18,0,1.53.13,2.8.18,3.3-2.29.37-1.83,1.89-2.73,3.52-2.75,4.39-.04,8.77-.05,13.16,0,1.91.02,3.33,1.42,3.88,3.8.22.97.58,1.28,1.36,1.24,1.01-.05,2.02-.02,3.03,0,3.54.06,6.25,3.27,6.27,7.52.03,8.53,0,17.06,0,25.59ZM141.76,77.63c0-8.11,0-16.22,0-24.32,0-2.54-.76-3.44-2.84-3.48-.61-.01-1.23.05-1.84-.01-.91-.09-1.4.21-1.66,1.41-.49,2.25-1.96,3.61-3.84,3.63-4.39.05-8.77.06-13.16,0-1.85-.03-3.26-1.2-3.74-3.33-.35-1.55-1.03-1.85-2.15-1.7-.35.05-.7,0-1.05,0-2.59.01-3.24.79-3.24,3.96,0,15.85,0,31.69,0,47.54,0,3.13.66,3.91,3.27,3.91,8.99,0,17.98,0,26.98,0,2.62,0,3.27-.78,3.28-3.91,0-7.9,0-15.79,0-23.69ZM125.05,44.77c-1.22,0-2.45-.02-3.67,0-2.93.04-2.56-.51-2.63,3.23-.02,1.22.3,1.68,1.34,1.65,2.8-.07,5.6,0,8.4-.03,3.08-.04,2.7.62,2.76-3.38.02-1.07-.28-1.52-1.21-1.49-1.66.06-3.32.02-4.98.01Z"/>
  <path d="M124.87,67.47c-2.63,0-5.26.01-7.89,0-1.65-.01-2.55-.96-2.53-2.61.02-1.59.89-2.52,2.47-2.52,5.39-.02,10.79-.02,16.18,0,1.57,0,2.45.94,2.46,2.53.02,1.65-.88,2.59-2.53,2.61-2.72.02-5.44,0-8.16,0Z"/>
  <path d="M124.94,77.58c-2.67,0-5.35.02-8.02,0-1.57-.01-2.45-.94-2.47-2.52-.02-1.65.87-2.61,2.52-2.62,5.35-.01,10.7-.01,16.05,0,1.66,0,2.55.95,2.54,2.6-.01,1.63-.91,2.53-2.59,2.54-2.67.02-5.35,0-8.02,0Z"/>
  <path d="M124.87,87.69c-2.63,0-5.26.01-7.89,0-1.66-.01-2.55-.96-2.53-2.61.02-1.59.89-2.52,2.47-2.53,5.39-.02,10.79-.02,16.18,0,1.57,0,2.45.94,2.47,2.53.02,1.65-.88,2.6-2.53,2.61-2.72.02-5.44,0-8.16,0Z"/>
  <path d="M121.76,97.79c-1.67,0-3.33.03-5,0-1.46-.03-2.31-1-2.32-2.55,0-1.55.84-2.56,2.29-2.58,3.42-.03,6.84-.03,10.26,0,1.43.01,2.28,1.06,2.25,2.62-.02,1.49-.85,2.46-2.22,2.5-1.75.04-3.51.01-5.26.01Z"/>
</svg>