<?xml version="1.0" encoding="UTF-8"?>
<svg id="Principal-mis_cursos" xmlns="http://www.w3.org/2000/svg" viewBox="0 0 250 150">
  <defs>
    <style>
      .cls-1 {
        fill: #fdf7ff;
      }
    </style>
  </defs>
  <path class="cls-1" d="M137.05,123.88c-4.54.02-7.76-1.99-9.65-5.76-1.17-2.33-2.67-3.44-5.25-2.98-.21.04-.44.04-.65,0-3.18-.59-5.08.65-6.66,3.56-2.76,5.07-8.76,6.63-13.87,4-2.69-1.38-5.32-2.91-7.9-4.5-5.43-3.33-7.09-9.37-3.75-14.78,1.53-2.47,1.22-4.13-.08-6.61-1.65-3.15-3.45-4.46-7.11-4.32-4.94.19-9.21-4.44-9.39-9.53-.12-3.46-.13-6.93,0-10.39.2-5.24,4.61-9.45,9.88-9.6.58-.02,1.16-.08,1.73,0,1.83.24,2.68-.68,3.72-2.16,2.41-3.44,2.86-6.32.55-10.29-2.6-4.47-.5-9.94,3.95-12.79,2.73-1.75,5.56-3.37,8.44-4.85,5.1-2.63,11.2-.99,13.84,4.07,1.52,2.9,3.38,4.01,6.47,3.53.84-.13,1.73-.05,2.59,0,1.14.07,1.94-.37,2.47-1.38.33-.64.72-1.25,1.08-1.88,3.01-5.22,9.04-7.06,14.39-4.28,2.75,1.43,5.44,2.99,8.07,4.63,4.99,3.12,6.57,9.43,3.36,14.59-1.53,2.47-1.16,4.12.07,6.61,1.66,3.37,3.72,4.39,7.34,4.32,4.82-.09,9,4.53,9.17,9.53.12,3.46.13,6.93,0,10.39-.2,5.25-4.61,9.46-9.87,9.6-.58.02-1.16.08-1.73,0-1.83-.24-2.68.68-3.72,2.16-2.41,3.44-2.88,6.32-.55,10.29,2.55,4.35.53,9.9-3.74,12.71-2.83,1.86-5.84,3.44-8.81,5.08-1.41.78-2.98,1.08-4.38,1.01ZM105.68,38.97c-.24.06-.63.06-.93.23-2.82,1.6-5.7,3.12-8.41,4.89-1.39.91-1.74,2.46-.9,4.04,1.01,1.91,2.06,3.81,3.13,5.69.88,1.54.88,3.02-.23,4.44-2.29,2.91-4.16,6.06-5.5,9.52-.62,1.59-1.84,2.34-3.54,2.34-1.8,0-3.61-.03-5.41.03-2.43.07-3.86,1.29-3.98,3.65-.14,2.66-.13,5.34,0,8,.11,2.39,1.52,3.63,3.93,3.71,1.73.06,3.46.05,5.19.02,1.87-.04,3.21.73,3.88,2.5,1.3,3.4,3.16,6.47,5.4,9.32,1.1,1.41,1.17,2.88.28,4.43-1,1.75-2.01,3.51-2.93,5.3-1.13,2.19-.75,3.68,1.32,4.97,2.2,1.37,4.46,2.67,6.74,3.9,2.25,1.22,3.76.81,5.13-1.35,1-1.58,1.89-3.24,2.83-4.86,1.06-1.81,2.54-2.61,4.7-2.23,3.21.57,6.47.6,9.68.02,2.35-.43,3.89.48,5.01,2.45.92,1.63,1.82,3.29,2.84,4.85,1.23,1.87,2.73,2.32,4.64,1.3,2.48-1.32,4.93-2.72,7.3-4.23,1.85-1.17,2.18-2.69,1.17-4.67-.92-1.8-1.92-3.55-2.93-5.3-.94-1.61-.93-3.14.24-4.62,2.25-2.85,4.08-5.93,5.4-9.33.65-1.67,1.91-2.46,3.7-2.44,1.8.01,3.61.04,5.41-.03,2.31-.08,3.73-1.29,3.86-3.55.15-2.73.15-5.48,0-8.22-.12-2.28-1.53-3.5-3.81-3.59-1.8-.07-3.61-.05-5.41-.03-1.78.02-3.07-.72-3.73-2.4-1.32-3.39-3.13-6.49-5.39-9.33-1.17-1.47-1.23-3-.29-4.62,1.01-1.75,2.02-3.5,2.93-5.3,1.05-2.06.68-3.58-1.29-4.81-2.26-1.42-4.58-2.75-6.92-4.01-2.15-1.16-3.65-.75-4.97,1.32-1.05,1.64-1.95,3.37-2.95,5.04-1.03,1.71-2.47,2.52-4.53,2.15-3.29-.58-6.6-.65-9.89-.02-2.26.43-3.76-.47-4.84-2.36-.9-1.56-1.8-3.13-2.71-4.68-.69-1.19-1.68-1.96-3.22-2.1Z"/>
  <path class="cls-1" d="M121.31,98.7c-11.73,0-20.89-9.12-20.89-20.82,0-11.84,9.13-20.96,20.98-20.95,11.68.01,20.79,9.18,20.79,20.93,0,11.71-9.15,20.84-20.88,20.84ZM121.22,64.08c-7.4.09-13.68,6.43-13.65,13.76.03,7.37,6.34,13.67,13.71,13.7,7.42.03,13.9-6.5,13.76-13.87-.15-7.42-6.51-13.68-13.81-13.6Z"/>
</svg>