<?xml version="1.0" encoding="UTF-8"?>
<svg id="Principal-mis_cursos" xmlns="http://www.w3.org/2000/svg" viewBox="0 0 250 150">
  <path d="M113.23,56.83c-.81.33-1.18.8-1.59,1.23-2.4,2.43-4.79,4.86-7.21,7.26-.93.92-2.01,1.56-3.39,1.58-3.08.04-5.09-2.97-3.85-5.79.36-.83.93-1.52,1.57-2.16,5.01-5,10.01-10.01,15.02-15.01,2.45-2.44,4.79-2.44,7.23,0,5.07,5.06,10.13,10.13,15.2,15.19.87.87,1.55,1.83,1.7,3.07.23,1.85-.61,3.48-2.17,4.27-1.67.84-3.67.53-5.18-.95-2.56-2.5-5.06-5.07-7.6-7.6-.36-.35-.65-.79-1.21-1.01-.33.46-.19.98-.19,1.46-.01,8.23,0,16.46-.02,24.69-.01,3.31-2.72,5.18-5.78,4.05-1.65-.61-2.52-1.94-2.53-4.04-.02-5.33,0-10.66,0-15.99,0-3.36,0-6.72,0-10.25Z"/>
  <path d="M117.5,107.88c-5.42,0-10.83.01-16.25,0-7.34-.02-12.56-5.25-12.6-12.6-.01-2.64-.05-5.29.02-7.93.07-2.76,2.04-4.44,4.72-4.15,2.07.22,3.51,1.78,3.57,4,.06,2.43.02,4.86.03,7.29.01,3.67,1.39,5.07,5,5.07,10.28,0,20.56,0,30.84,0,3.7,0,4.99-1.31,5-5.03,0-2.39-.04-4.78.03-7.17.08-2.66,1.9-4.32,4.46-4.19,2.12.11,3.73,1.5,3.77,3.61.08,3.66.31,7.34-.2,10.99-.77,5.58-5.73,10.02-11.37,10.09-5.67.06-11.35.01-17.02.01h0Z"/>
</svg>